<?xml version="1.0" encoding="UTF-8" standalone="no"?>
<!-- Created with Inkscape (http://www.inkscape.org/) -->

<svg
   width="100%"
   height="100%"
   viewBox="0 0 87.159799 38.372062"
   version="1.1"
   id="svg1"
   inkscape:version="1.3 (0e150ed, 2023-07-21)"
   sodipodi:docname="bb.svg"
   inkscape:export-filename="../../Desktop/max-site/max-react/src/img/svg/BlunderBoats/Island1/i1-s1.svg"
   inkscape:export-xdpi="96"
   inkscape:export-ydpi="96"
   xmlns:inkscape="http://www.inkscape.org/namespaces/inkscape"
   xmlns:sodipodi="http://sodipodi.sourceforge.net/DTD/sodipodi-0.dtd"
   xmlns="http://www.w3.org/2000/svg"
   xmlns:svg="http://www.w3.org/2000/svg">
  <sodipodi:namedview
     id="namedview1"
     pagecolor="#ffffff"
     bordercolor="#000000"
     borderopacity="0.25"
     inkscape:showpageshadow="2"
     inkscape:pageopacity="0.0"
     inkscape:pagecheckerboard="0"
     inkscape:deskcolor="#d1d1d1"
     inkscape:document-units="mm"
     inkscape:zoom="0.7232577"
     inkscape:cx="495.67395"
     inkscape:cy="18.665546"
     inkscape:window-width="1512"
     inkscape:window-height="846"
     inkscape:window-x="0"
     inkscape:window-y="1478"
     inkscape:window-maximized="0"
     inkscape:current-layer="layer1" />
  <defs
     id="defs1" />
  <g
     inkscape:label="Layer 1"
     inkscape:groupmode="layer"
     id="layer1"
     transform="translate(-194.51152,-513.20106)">
    <path
       id="path22"
       style="fill:#3b70b6;fill-rule:evenodd;stroke-width:2;stroke-linejoin:round;paint-order:stroke fill markers"
       d="m 211.37225,513.20395 a 16.719423,10.415379 0 0 0 -16.31115,10.58075 16.719423,10.415379 0 0 0 3.40548,6.11539 21.104847,13.704445 0 0 0 -3.95273,8.19072 21.104847,13.704445 0 0 0 21.2726,13.48186 21.104847,13.704445 0 0 0 18.23972,-7.02283 24.119823,16.171246 0 0 0 13.30513,2.63757 24.119823,16.171246 0 0 0 14.05806,-3.15226 13.156267,9.3190231 0 0 0 7.23211,1.50791 13.156267,9.3190231 0 0 0 13.04985,-9.31881 l -0.007,-0.30179 a 13.156267,9.3190231 0 0 0 -11.20087,-8.89661 24.119823,16.171246 0 0 0 -23.91327,-12.17549 24.119823,16.171246 0 0 0 -15.35668,4.07417 7.4004006,6.5781336 0 0 0 -5.3418,-1.88464 7.4004006,6.5781336 0 0 0 -1.01027,0.0858 16.719423,10.415379 0 0 0 -13.46895,-3.92173 z" />
  </g>
</svg>
