<?xml version="1.0" encoding="UTF-8" standalone="no"?>
<!-- Created with Inkscape (http://www.inkscape.org/) -->

<svg
   width="100%"
   height="100%"
   viewBox="0 0 124.18105 43.822642"
   version="1.1"
   id="svg1"
   inkscape:version="1.3 (0e150ed, 2023-07-21)"
   sodipodi:docname="bb.svg"
   inkscape:export-filename="../../Desktop/max-site/max-react/src/img/svg/BlunderBoats/Island1/i1-s1.svg"
   inkscape:export-xdpi="96"
   inkscape:export-ydpi="96"
   xmlns:inkscape="http://www.inkscape.org/namespaces/inkscape"
   xmlns:sodipodi="http://sodipodi.sourceforge.net/DTD/sodipodi-0.dtd"
   xmlns="http://www.w3.org/2000/svg"
   xmlns:svg="http://www.w3.org/2000/svg">
  <sodipodi:namedview
     id="namedview1"
     pagecolor="#ffffff"
     bordercolor="#000000"
     borderopacity="0.25"
     inkscape:showpageshadow="2"
     inkscape:pageopacity="0.0"
     inkscape:pagecheckerboard="0"
     inkscape:deskcolor="#d1d1d1"
     inkscape:document-units="mm"
     inkscape:zoom="0.7232577"
     inkscape:cx="495.67395"
     inkscape:cy="18.665546"
     inkscape:window-width="1512"
     inkscape:window-height="846"
     inkscape:window-x="0"
     inkscape:window-y="1478"
     inkscape:window-maximized="0"
     inkscape:current-layer="layer1" />
  <defs
     id="defs1" />
  <g
     inkscape:label="Layer 1"
     inkscape:groupmode="layer"
     id="layer1"
     transform="translate(-144.22959,-402.89958)">
    <path
       id="path16"
       style="fill:#3b70b6;fill-rule:evenodd;stroke-width:2;stroke-linejoin:round;paint-order:stroke fill markers"
       d="m 216.41794,402.89958 a 35.370525,17.3008 0 0 0 -27.79624,7.1701 35.370525,18.64642 0 0 0 -9.88105,-0.63407 35.370525,18.64642 0 0 0 -34.50642,18.94303 35.370525,18.64642 0 0 0 35.65209,18.34358 35.370525,18.64642 0 0 0 30.5971,-9.58546 35.370525,17.3008 0 0 0 7.08019,0.35864 35.370525,17.3008 0 0 0 18.21594,-2.57969 21.529884,12.495023 0 0 0 11.2758,1.81074 21.529884,12.495023 0 0 0 21.35528,-12.49433 l -0.0109,-0.40462 a 21.529884,12.495023 0 0 0 -20.2923,-12.04526 35.370525,17.3008 0 0 0 -31.68954,-8.88266 z" />
  </g>
</svg>
