<?xml version="1.0" encoding="UTF-8" standalone="no"?>
<!-- Created with Inkscape (http://www.inkscape.org/) -->

<svg
   width="100%"
   height="100%"
   viewBox="0 0 213.39478 78.961057"
   version="1.1"
   id="svg1"
   inkscape:version="1.3 (0e150ed, 2023-07-21)"
   sodipodi:docname="bb.svg"
   inkscape:export-filename="../../Desktop/max-site/max-react/src/img/svg/BlunderBoats/Island1/i1-l3.svg"
   inkscape:export-xdpi="96"
   inkscape:export-ydpi="96"
   xmlns:inkscape="http://www.inkscape.org/namespaces/inkscape"
   xmlns:sodipodi="http://sodipodi.sourceforge.net/DTD/sodipodi-0.dtd"
   xmlns="http://www.w3.org/2000/svg"
   xmlns:svg="http://www.w3.org/2000/svg">
  <sodipodi:namedview
     id="namedview1"
     pagecolor="#ffffff"
     bordercolor="#000000"
     borderopacity="0.25"
     inkscape:showpageshadow="2"
     inkscape:pageopacity="0.0"
     inkscape:pagecheckerboard="0"
     inkscape:deskcolor="#d1d1d1"
     inkscape:document-units="mm"
     inkscape:zoom="0.55342308"
     inkscape:cx="383.97387"
     inkscape:cy="490.58308"
     inkscape:window-width="1512"
     inkscape:window-height="848"
     inkscape:window-x="0"
     inkscape:window-y="1478"
     inkscape:window-maximized="1"
     inkscape:current-layer="layer1" />
  <defs
     id="defs1" />
  <g
     inkscape:label="Layer 1"
     inkscape:groupmode="layer"
     id="layer1"
     transform="translate(14.417205,-313.13016)">
    <path
       id="path2"
       style="fill:#c4dcec;fill-opacity:1;fill-rule:evenodd;stroke-width:2;stroke-linejoin:round;paint-order:stroke fill markers"
       d="m 77.228926,313.1337 a 17.383884,13.851562 0 0 0 -15.143262,7.74939 26.974869,22.376881 0 0 0 -9.692948,2.76004 17.383884,13.851562 0 0 0 -11.983248,-3.54242 17.383884,13.851562 0 0 0 -15.689999,8.70851 17.383884,13.851562 0 0 0 -9.790617,-2.204 17.383884,13.851562 0 0 0 -16.9591713,14.07201 17.383884,13.851562 0 0 0 0.367936,2.47996 26.974869,22.376881 0 0 0 -12.7521927,19.3275 26.974869,22.376881 0 0 0 27.190071,22.01364 26.974869,22.376881 0 0 0 23.910169,-12.46384 26.974869,22.376881 0 0 0 1.791105,0.0935 26.974869,22.376881 0 0 0 19.10271,6.47609 26.974869,22.376881 0 0 0 15.565975,-4.29328 26.974869,22.376881 0 0 0 16.919905,4.85552 26.974869,22.376881 0 0 0 0.83819,-0.0553 26.974869,22.376881 0 0 0 24.682211,12.97957 26.974869,22.376881 0 0 0 23.48539,-11.81375 26.974869,22.376881 0 0 0 5.28081,0.45114 26.974869,22.376881 0 0 0 22.68337,-10.58799 26.974869,22.376881 0 0 0 5.18573,0.43512 26.974869,22.376881 0 0 0 26.75651,-22.37641 l -0.0139,-0.72451 a 26.974869,22.376881 0 0 0 -23.69261,-21.48137 17.383884,13.851562 0 0 0 -15.45332,-6.95772 17.383884,13.851562 0 0 0 -11.46339,3.76205 26.974869,22.376881 0 0 0 -14.83372,-3.35122 26.974869,22.376881 0 0 0 -14.37896,3.79357 26.974869,22.376881 0 0 0 -8.08633,-0.88729 26.974869,22.376881 0 0 0 -8.82324,1.4764 17.383884,13.851562 0 0 0 -8.797911,-2.59829 17.383884,13.851562 0 0 0 -16.205213,-8.09666 z"
       inkscape:export-filename="../../Desktop/max-site/max-react/src/img/svg/BlunderBoats/cloudTop.svg"
       inkscape:export-xdpi="96"
       inkscape:export-ydpi="96" />
  </g>
</svg>
