<?xml version="1.0" encoding="UTF-8" standalone="no"?>
<!-- Created with Inkscape (http://www.inkscape.org/) -->

<svg
   width="100%"
   height="100%"
   viewBox="0 0 499.99998 499.99999"
   version="1.1"
   id="svg1"
   inkscape:version="1.3 (0e150ed, 2023-07-21)"
   sodipodi:docname="bb.svg"
   inkscape:export-filename="../../Desktop/max-site/max-react/src/img/svg/BlunderBoats/Island1/i1-s1.svg"
   inkscape:export-xdpi="96"
   inkscape:export-ydpi="96"
   xmlns:inkscape="http://www.inkscape.org/namespaces/inkscape"
   xmlns:sodipodi="http://sodipodi.sourceforge.net/DTD/sodipodi-0.dtd"
   xmlns="http://www.w3.org/2000/svg"
   xmlns:svg="http://www.w3.org/2000/svg">
  <sodipodi:namedview
     id="namedview1"
     pagecolor="#ffffff"
     bordercolor="#000000"
     borderopacity="0.25"
     inkscape:showpageshadow="2"
     inkscape:pageopacity="0.0"
     inkscape:pagecheckerboard="0"
     inkscape:deskcolor="#d1d1d1"
     inkscape:document-units="mm"
     inkscape:zoom="0.38844402"
     inkscape:cx="-474.97192"
     inkscape:cy="1028.4622"
     inkscape:window-width="1512"
     inkscape:window-height="846"
     inkscape:window-x="0"
     inkscape:window-y="38"
     inkscape:window-maximized="0"
     inkscape:current-layer="layer1" />
  <defs
     id="defs1" />
  <g
     inkscape:label="Layer 1"
     inkscape:groupmode="layer"
     id="layer1"
     transform="translate(519.93993,-318.79627)">
    <path
       style="fill:#2f2f2f;fill-opacity:0;fill-rule:evenodd;stroke:none;stroke-width:1;stroke-linejoin:round;stroke-dasharray:none;stroke-opacity:1;paint-order:stroke fill markers"
       id="path33"
       sodipodi:type="arc"
       sodipodi:cx="-269.93997"
       sodipodi:cy="568.79626"
       sodipodi:rx="250"
       sodipodi:ry="250"
       sodipodi:start="0"
       sodipodi:end="6.250792"
       sodipodi:open="true"
       sodipodi:arc-type="arc"
       d="M -19.939972,568.79626 A 250,250 0 0 1 -267.91541,818.78807 250,250 0 0 1 -519.90718,572.84525 250,250 0 0 1 -276.01312,318.87004 250,250 0 0 1 -20.071126,560.69935"
       inkscape:export-filename="../../Desktop/max-site/max-react/src/img/svg/BlunderBoats/Projectile1.svg"
       inkscape:export-xdpi="96"
       inkscape:export-ydpi="96" />
    <path
       style="fill:#2f2f2f;fill-opacity:1;fill-rule:evenodd;stroke:none;stroke-width:0.600001;stroke-linejoin:round;stroke-dasharray:none;stroke-opacity:1;paint-order:stroke fill markers"
       id="path31"
       sodipodi:type="arc"
       sodipodi:cx="-53.076118"
       sodipodi:cy="453.31958"
       sodipodi:rx="4.0810437"
       sodipodi:ry="3.7545602"
       sodipodi:start="0"
       sodipodi:end="6.250792"
       sodipodi:open="true"
       sodipodi:arc-type="arc"
       d="m -48.995075,453.31958 a 4.0810437,3.7545602 0 0 1 -4.047994,3.75444 4.0810437,3.7545602 0 0 1 -4.113558,-3.69363 4.0810437,3.7545602 0 0 1 3.981369,-3.81426 4.0810437,3.7545602 0 0 1 4.178042,3.63185" />
    <path
       style="fill:#2f2f2f;fill-opacity:0.5;fill-rule:evenodd;stroke:none;stroke-width:0.436468;stroke-linejoin:round;stroke-dasharray:none;stroke-opacity:1;paint-order:stroke fill markers"
       id="path32"
       sodipodi:type="arc"
       sodipodi:cx="-45.447151"
       sodipodi:cy="469.30624"
       sodipodi:rx="2.0213485"
       sodipodi:ry="1.8288392"
       sodipodi:start="0"
       sodipodi:end="6.250792"
       sodipodi:open="true"
       sodipodi:arc-type="arc"
       d="m -43.425803,469.30624 a 2.0213485,1.8288392 0 0 1 -2.004979,1.82878 2.0213485,1.8288392 0 0 1 -2.037453,-1.79916 2.0213485,1.8288392 0 0 1 1.97198,-1.85792 2.0213485,1.8288392 0 0 1 2.069392,1.76907" />
    <path
       style="fill:#2f2f2f;fill-opacity:0.2;fill-rule:evenodd;stroke:none;stroke-width:0.290165;stroke-linejoin:round;stroke-dasharray:none;stroke-opacity:1;paint-order:stroke fill markers"
       id="path32-6"
       sodipodi:type="arc"
       sodipodi:cx="-43.415146"
       sodipodi:cy="475.48688"
       sodipodi:rx="1.3475655"
       sodipodi:ry="1.2124195"
       sodipodi:start="0"
       sodipodi:end="6.250792"
       sodipodi:open="true"
       sodipodi:arc-type="arc"
       d="m -42.06758,475.48688 a 1.3475655,1.2124195 0 0 1 -1.336653,1.21238 1.3475655,1.2124195 0 0 1 -1.358302,-1.19275 1.3475655,1.2124195 0 0 1 1.314653,-1.23169 1.3475655,1.2124195 0 0 1 1.379595,1.17279" />
    <path
       style="fill:#2f2f2f;fill-opacity:0.7;fill-rule:evenodd;stroke:none;stroke-width:0.600001;stroke-linejoin:round;stroke-dasharray:none;stroke-opacity:1;paint-order:stroke fill markers"
       id="path32-3"
       sodipodi:type="arc"
       sodipodi:cx="-48.864819"
       sodipodi:cy="462.12106"
       sodipodi:rx="2.7913861"
       sodipodi:ry="2.5026221"
       sodipodi:start="0"
       sodipodi:end="6.250792"
       sodipodi:open="true"
       sodipodi:arc-type="arc"
       d="m -46.073432,462.12106 a 2.7913861,2.5026221 0 0 1 -2.768781,2.50254 2.7913861,2.5026221 0 0 1 -2.813626,-2.462 2.7913861,2.5026221 0 0 1 2.72321,-2.54242 2.7913861,2.5026221 0 0 1 2.857732,2.42083" />
  </g>
</svg>
