<?xml version="1.0" encoding="UTF-8" standalone="no"?>
<!-- Created with Inkscape (http://www.inkscape.org/) -->

<svg
   width="100%"
   height="100%"
   viewBox="0 0 100 101.09411"
   version="1.1"
   id="svg1"
   inkscape:version="1.3 (0e150ed, 2023-07-21)"
   sodipodi:docname="fourier.svg"
   xmlns:inkscape="http://www.inkscape.org/namespaces/inkscape"
   xmlns:sodipodi="http://sodipodi.sourceforge.net/DTD/sodipodi-0.dtd"
   xmlns="http://www.w3.org/2000/svg"
   xmlns:svg="http://www.w3.org/2000/svg">
  <sodipodi:namedview
     id="namedview1"
     pagecolor="#ffffff"
     bordercolor="#000000"
     borderopacity="0.25"
     inkscape:showpageshadow="2"
     inkscape:pageopacity="0.0"
     inkscape:pagecheckerboard="0"
     inkscape:deskcolor="#d1d1d1"
     inkscape:document-units="mm"
     inkscape:zoom="0.69662547"
     inkscape:cx="405.52638"
     inkscape:cy="658.1729"
     inkscape:window-width="1512"
     inkscape:window-height="848"
     inkscape:window-x="0"
     inkscape:window-y="38"
     inkscape:window-maximized="1"
     inkscape:current-layer="layer1" />
  <defs
     id="defs1" />
  <g
     inkscape:label="Layer 1"
     inkscape:groupmode="layer"
     id="layer1"
     transform="translate(-0.48632137,-132.91679)">
    <rect
       style="fill:#000000;fill-opacity:1;fill-rule:evenodd;stroke:none;stroke-width:1.93635;stroke-linecap:round;stroke-linejoin:round;paint-order:markers stroke fill"
       id="rect4-1"
       width="3"
       height="100"
       x="48.986324"
       y="134.01089"
       ry="1.75" />
    <rect
       style="fill:#000000;fill-opacity:1;fill-rule:evenodd;stroke:none;stroke-width:1.27738;stroke-linecap:round;stroke-linejoin:round;stroke-dasharray:none;paint-order:markers stroke fill"
       id="rect5-8"
       width="100"
       height="3"
       x="0.48632136"
       y="182.51089"
       ry="1.5" />
    <path
       style="fill:none;fill-rule:evenodd;stroke:#0c2376;stroke-width:2.18784;stroke-linecap:round;stroke-linejoin:round;stroke-opacity:1;paint-order:markers stroke fill"
       d="m 56.041921,184.0109 c 0.9355,-0.117 1.8673,-0.2931 2.788,-0.5276 0.9207,-0.2345 1.8302,-0.5276 2.7213,-0.8773 0.8912,-0.3498 1.7638,-0.7565 2.6109,-1.2173 0.8472,-0.4609 1.6688,-0.9761 2.4583,-1.542 0.7894,-0.566 1.5466,-1.1829 2.2654,-1.8463 0.7189,-0.6634 1.3991,-1.3735 2.0355,-2.1251 0.6363,-0.7516 1.2284,-1.5449 1.7715,-2.374 0.5432,-0.8291 1.0371,-1.6943 1.4779,-2.589 0.4407,-0.8947 0.8279,-1.8192 1.1585,-2.7664 0.3307,-0.9473 0.6043,-1.9175 0.8188,-2.9034 0.2145,-0.9859 0.3695,-1.9876 0.4636,-2.9976 0.0941,-1.01 0.127,-2.0283 0.0984,-3.0473 -0.0287,-1.0191 -0.1192,-2.0388 -0.2711,-3.0517 -0.152,-1.0129 -0.3656,-2.0188 -0.6394,-3.0103 -0.2738,-0.9915 -0.6081,-1.9685 -1.0005,-2.9238 -0.3923,-0.9553 -0.8431,-1.8886 -1.349,-2.7932 -0.5058,-0.9046 -1.0671,-1.7803 -1.6795,-2.6206 -0.6125,-0.84026 -1.2764,-1.64495 -1.987,-2.40818 -0.7105,-0.76324 -1.4678,-1.48477 -2.2664,-2.15939 -0.7985,-0.67462 -1.6385,-1.30205 -2.5136,-1.87782 -0.8752,-0.57577 -1.7857,-1.09956 -2.7248,-1.56772 -0.9392,-0.46817 -1.9071,-0.88037 -2.8966,-1.23381 -0.9895,-0.35345 -2.0008,-0.64778 -3.0263,-0.88112 -1.0255,-0.23335 -2.0654,-0.40534 -3.1119,-0.51503 -1.0466,-0.10969 -2.0999,-0.15672 -3.1523,-0.14109 -1.0523,0.0156 -2.1037,0.0943 -3.1464,0.235 -1.0428,0.14071 -2.0768,0.34385 -3.0948,0.6075 -1.0179,0.26366 -2.0196,0.58819 -2.9979,0.97077 -0.9783,0.38258 -1.933,0.82356 -2.8575,1.31925 -0.9244,0.49569 -1.8183,1.04641 -2.6755,1.64767 -0.8572,0.60126 -1.6775,1.25336 -2.4551,1.95106 -0.7777,0.6977 -1.5125,1.44127 -2.1994,2.22482 -0.687,0.78355 -1.3259,1.60729 -1.9126,2.46479 -0.5866,0.8576 -1.1207,1.7491 -1.5989,2.6676 -0.4781,0.9185 -0.9001,1.8642 -1.2633,2.8299 -0.3633,0.9657 -0.6675,1.9514 -0.9112,2.9496 -0.2437,0.9983 -0.4264,2.0091 -0.5477,3.0249 -0.1213,1.0159 -0.1807,2.0367 -0.1787,3.0549 0.0021,1.0182 0.066,2.0337 0.1903,3.0391 0.1244,1.0054 0.3097,2.0005 0.5536,2.9782 0.2438,0.9776 0.5467,1.9376 0.9054,2.8731 0.3586,0.9354 0.7735,1.8461 1.2405,2.7257 0.467,0.8796 0.9865,1.7277 1.5538,2.5386 0.5673,0.8109 1.1826,1.5843 1.8405,2.3149 0.6579,0.7305 1.3587,1.4181 2.0963,2.058 0.7376,0.6399 1.5122,1.2319 2.3172,1.7724 0.8051,0.5404 1.6409,1.0289 2.5003,1.4625 0.8594,0.4337 1.7427,0.8122 2.6425,1.1336 0.8999,0.3213 1.8164,0.5852 2.7422,0.7906 0.9258,0.2053 1.8609,0.3518 2.7978,0.4392 0.9369,0.0875 1.8756,0.1156 2.8087,0.0851 0.9331,-0.0304 1.8606,-0.1197 2.7751,-0.2662 0.9146,-0.1465 1.8162,-0.3504 2.6979,-0.6092 0.8816,-0.2587 1.7432,-0.5726 2.5782,-0.9382 0.835,-0.3656 1.6433,-0.7831 2.4187,-1.2483 0.7754,-0.4652 1.5177,-0.9784 2.2216,-1.5345 0.7039,-0.5562 1.3691,-1.1555 1.9908,-1.7924 0.6218,-0.6369 1.1998,-1.3115 1.73,-2.0178 0.5303,-0.7062 1.0125,-1.4443 1.4436,-2.2074 0.4311,-0.7632 0.8106,-1.5516 1.1364,-2.3583 0.3257,-0.8068 0.5973,-1.6319 0.8134,-2.4683 0.2161,-0.8363 0.3764,-1.684 0.4803,-2.5356 0.1039,-0.8515 0.1511,-1.7071 0.1422,-2.5594 -0.009,-0.8522 -0.0744,-1.7012 -0.1951,-2.5396 -0.1206,-0.8384 -0.2967,-1.6663 -0.526,-2.4766 -0.2294,-0.8104 -0.5122,-1.6031 -0.8453,-2.3717 -0.3332,-0.7686 -0.7171,-1.5129 -1.1476,-2.2267 -0.4306,-0.7139 -0.9081,-1.3971 -1.4279,-2.0442 -0.5198,-0.6471 -1.0822,-1.2578 -1.6817,-1.8273 -0.5996,-0.5695 -1.2365,-1.0974 -1.9049,-1.5797 -0.6684,-0.4823 -1.3684,-0.9186 -2.0937,-1.3056 -0.7252,-0.387 -1.4759,-0.7244 -2.2451,-1.0097 -0.7692,-0.2852 -1.5571,-0.518 -2.3567,-0.6968 -0.7995,-0.1787 -1.6108,-0.303 -2.4265,-0.3722 -0.8158,-0.0692 -1.6361,-0.083 -2.4536,-0.0415 -0.8176,0.0414 -1.6324,0.1385 -2.4374,0.2899 -0.8049,0.1515 -1.6,0.3577 -2.3781,0.6165 -0.7781,0.2589 -1.5393,0.5709 -2.2768,0.9329 -0.7376,0.362 -1.4514,0.7744 -2.1352,1.2335 -0.6838,0.459 -1.3375,0.965 -1.9554,1.5134 -0.6179,0.5485 -1.1998,1.1396 -1.7405,1.7682 -0.5408,0.6285 -1.0403,1.2948 -1.494,1.993 -0.4538,0.6982 -0.8616,1.4285 -1.2199,2.1845 -0.3583,0.756 -0.6668,1.538 -0.9227,2.3391 -0.2559,0.8011 -0.4589,1.6216 -0.6072,2.4543 -0.1482,0.8327 -0.2414,1.6777 -0.2786,2.5279 -0.0372,0.8501 -0.018,1.7054 0.0576,2.5585 0.0756,0.8531 0.2079,1.7041 0.396,2.5456 0.1881,0.8416 0.4323,1.6737 0.7309,2.4892 0.2986,0.8155 0.6518,1.6143 1.0569,2.3897 0.4051,0.7754 0.8625,1.5271 1.3685,2.2489 0.5061,0.7217 1.061,1.4132 1.6606,2.0687 0.5996,0.6554 1.2441,1.2745 1.9283,1.8519 0.6842,0.5774 1.4085,1.1128 2.167,1.6017 0.7585,0.489 1.5515,0.931 2.3727,1.3223 0.8212,0.3914 1.6708,0.7316 2.542,1.0178 0.8713,0.2861 1.7642,0.5178 2.6719,0.6929 0.9076,0.1751 1.83,0.2932 2.7598,0.353 0.9299,0.0598 1.8672,0.061 2.8045,0.003 0.9374,-0.0578 1.8748,-0.1749 2.8047,-0.3508 0.93,-0.1758 1.8525,-0.4108 2.7603,-0.7033 0.9077,-0.2925 1.8006,-0.643 2.6715,-1.0489 0.8709,-0.4059 1.7197,-0.8677 2.5397,-1.3819 0.82,-0.5143 1.611,-1.0813 2.3667,-1.697 0.7557,-0.6157 1.4759,-1.2804 2.1549,-1.9892 0.679,-0.7087 1.3165,-1.4617 1.9075,-2.2535 0.591,-0.7918 1.1352,-1.6225 1.6282,-2.486 0.493,-0.8635 0.9345,-1.7599 1.3211,-2.6826 0.3865,-0.9227 0.7177,-1.8718 0.9909,-2.8401 0.2732,-0.9684 0.4881,-1.9562 0.6428,-2.956 0.1547,-0.9998 0.2489,-2.0117 0.2819,-3.0281 0.0329,-1.0164 0.0041,-2.0373 -0.0862,-3.0552 -0.0904,-1.0178 -0.2426,-2.0326 -0.4558,-3.0367 -0.2131,-1.004 -0.4875,-1.9974 -0.8211,-2.9726 -0.3336,-0.9752 -0.7268,-1.9322 -1.1767,-2.8639 -0.4499,-0.9317 -0.9567,-1.8379 -1.5169,-2.712 -0.5601,-0.8741 -1.1738,-1.7159 -1.8364,-2.51919 -0.6627,-0.80328 -1.3746,-1.56783 -2.1305,-2.28813 -0.7558,-0.7203 -1.5559,-1.39606 -2.3943,-2.02244 -0.8383,-0.62639 -1.7151,-1.2031 -2.6239,-1.72606 -0.9088,-0.52296 -1.8497,-0.99185 -2.8158,-1.40343 -0.9661,-0.41159 -1.9575,-0.76553 -2.9668,-1.05949 -1.0094,-0.29395 -2.0368,-0.52756 -3.0748,-0.6994 -1.0379,-0.17185 -2.0864,-0.28156 -3.1378,-0.32868 -1.0514,-0.0471 -2.1056,-0.0313 -3.1551,0.047 -1.0494,0.0783 -2.0941,0.21948 -3.1263,0.42205 -1.0322,0.20257 -2.052,0.46691 -3.0519,0.79064 -0.9999,0.32374 -1.9799,0.70722 -2.933,1.1472 -0.9531,0.43997 -1.8791,0.93677 -2.7716,1.48629 -0.8924,0.54952 -1.751,1.15207 -2.5699,1.80279 -0.8189,0.65071 -1.5978,1.34987 -2.3314,2.09191 -0.7337,0.74203 -1.4217,1.52718 -2.0596,2.3493 -0.638,0.8221 -1.2255,1.6813 -1.7588,2.571 -0.5333,0.8897 -1.0121,1.8101 -1.4336,2.754 -0.4214,0.9438 -0.785,1.9114 -1.089,2.8952 -0.3039,0.9838 -0.5478,1.984 -0.7305,2.9929 -0.1827,1.0089 -0.3039,2.0267 -0.3635,3.0456 -0.0596,1.0189 -0.0573,2.039 0.0062,3.0527 0.0634,1.0136 0.1884,2.0209 0.373,3.0142 0.1846,0.9933 0.4292,1.9727 0.7312,2.931 0.302,0.9583 0.6616,1.8954 1.0754,2.8046 0.4137,0.9092 0.8819,1.7902 1.4002,2.637 0.5183,0.8467 1.0869,1.659 1.7008,2.4311 0.6139,0.7721 1.2733,1.5038 1.9725,2.1903 0.6992,0.6864 1.4384,1.3273 2.2113,1.9185 0.7729,0.5912 1.5797,1.1324 2.4137,1.6202 0.8339,0.4878 1.6952,0.922 2.5766,1.3001 0.8814,0.3781 1.7831,0.6998 2.6978,0.9635 0.9146,0.2637 1.8423,0.4691 2.7755,0.6156 0.9332,0.1465 1.872,0.2338 2.8088,0.2622 0.9369,0.0284 1.8719,-0.003 2.7975,-0.0913 0.9257,-0.0888 1.842,-0.2359 2.7419,-0.4391 0.8999,-0.2031 1.7832,-0.4627 2.6432,-0.7757 0.86,-0.313 1.6966,-0.6796 2.5033,-1.096 0.8068,-0.4164 1.5835,-0.8828 2.3246,-1.3947 0.7411,-0.5118 1.4462,-1.0694 2.1103,-1.6672 0.664,-0.5979 1.2868,-1.2363 1.8638,-1.9094 0.5771,-0.673 1.1082,-1.3809 1.5897,-2.1173 0.4816,-0.7363 0.9132,-1.5012 1.2923,-2.2878 0.379,-0.7867 0.7052,-1.5952 0.9765,-2.4186 0.2714,-0.8233 0.4876,-1.6615 0.6478,-2.5073 0.1603,-0.8457 0.2641,-1.6992 0.3115,-2.5529 0.0475,-0.8538 0.0382,-1.7078 -0.0269,-2.555 -0.065,-0.8471 -0.1862,-1.6873 -0.3617,-2.5134 -0.1754,-0.8262 -0.4055,-1.6382 -0.6874,-2.4293 -0.282,-0.7912 -0.6161,-1.5613 -0.9989,-2.3041 -0.3828,-0.7428 -0.8145,-1.4581 -1.2908,-2.14 -0.4763,-0.6819 -0.9974,-1.3302 -1.5584,-1.9398 -0.5609,-0.6096 -1.1619,-1.1801 -1.7973,-1.7071 -0.6354,-0.5269 -1.3054,-1.0101 -2.0038,-1.4457 -0.6984,-0.4355 -1.4253,-0.8232 -2.1742,-1.16 -0.7489,-0.3369 -1.5199,-0.6226 -2.3061,-0.855 -0.7861,-0.2325 -1.5874,-0.4114 -2.3969,-0.5357 -0.8094,-0.1242 -1.627,-0.1934 -2.4454,-0.2073 -0.8185,-0.0139 -1.6379,0.0278 -2.4509,0.1245 -0.8131,0.0966 -1.6198,0.2486 -2.4131,0.4542 -0.7933,0.2056 -1.5731,0.4652 -2.3326,0.7763 -0.7596,0.3111 -1.4987,0.674 -2.211,1.0854 -0.7122,0.4114 -1.3975,0.8716 -2.0498,1.3764 -0.6524,0.5048 -1.2715,1.0545 -1.8522,1.6442 -0.5806,0.5898 -1.1225,1.2198 -1.621,1.8846 -0.4984,0.6648 -0.9531,1.3645 -1.3601,2.0932 -0.407,0.7286 -0.766,1.4863 -1.0739,2.2665 -0.3078,0.7803 -0.5642,1.5832 -0.7668,2.4018 -0.2027,0.8187 -0.3512,1.6532 -0.4443,2.4964 -0.093,0.8432 -0.1302,1.6952 -0.1111,2.5486 0.0191,0.8535 0.0949,1.7084 0.2269,2.5576 0.132,0.8491 0.3205,1.6925 0.5642,2.5228 0.2437,0.8303 0.5429,1.6475 0.8954,2.4447 0.3524,0.7971 0.7584,1.5741 1.2148,2.3243 0.4564,0.7502 0.9635,1.4735 1.5173,2.1636 0.5539,0.6901 1.1547,1.3469 1.7978,1.9647 0.6431,0.6178 1.3288,1.1964 2.0515,1.7307 0.7228,0.5344 1.4828,1.0243 2.2742,1.4655 0.7914,0.4412 1.6143,0.8333 2.4622,1.1729 0.8478,0.3395 1.7208,0.6263 2.612,0.8575 0.8912,0.2313 1.8006,0.4067 2.7212,0.5245 0.9205,0.1179 1.8522,0.1778 2.7877,0.179 0.9354,0.001 1.8746,-0.0567 2.8102,-0.1736"
       title="(0.5+4*sin(x))/4.5"
       id="path6-7" />
  </g>
</svg>
