<?xml version="1.0" encoding="UTF-8" standalone="no"?>
<!-- Created with Inkscape (http://www.inkscape.org/) -->

<svg
   width="100%"
   height="100%"
   viewBox="0 0 100 100"
   version="1.1"
   id="svg1"
   inkscape:version="1.3 (0e150ed, 2023-07-21)"
   sodipodi:docname="fourier.svg"
   xmlns:inkscape="http://www.inkscape.org/namespaces/inkscape"
   xmlns:sodipodi="http://sodipodi.sourceforge.net/DTD/sodipodi-0.dtd"
   xmlns="http://www.w3.org/2000/svg"
   xmlns:svg="http://www.w3.org/2000/svg">
  <sodipodi:namedview
     id="namedview1"
     pagecolor="#ffffff"
     bordercolor="#000000"
     borderopacity="0.25"
     inkscape:showpageshadow="2"
     inkscape:pageopacity="0.0"
     inkscape:pagecheckerboard="0"
     inkscape:deskcolor="#d1d1d1"
     inkscape:document-units="mm"
     inkscape:zoom="0.69662547"
     inkscape:cx="405.52638"
     inkscape:cy="658.1729"
     inkscape:window-width="1512"
     inkscape:window-height="848"
     inkscape:window-x="0"
     inkscape:window-y="38"
     inkscape:window-maximized="1"
     inkscape:current-layer="layer1" />
  <defs
     id="defs1" />
  <g
     inkscape:label="Layer 1"
     inkscape:groupmode="layer"
     id="layer1">
    <rect
       style="fill:#000000;fill-opacity:1;fill-rule:evenodd;stroke:none;stroke-width:1.93635;stroke-linecap:round;stroke-linejoin:round;paint-order:markers stroke fill"
       id="rect4"
       width="3"
       height="100"
       x="48.5"
       y="0"
       ry="1.75" />
    <rect
       style="fill:#000000;fill-opacity:1;fill-rule:evenodd;stroke:none;stroke-width:1.27738;stroke-linecap:round;stroke-linejoin:round;stroke-dasharray:none;paint-order:markers stroke fill"
       id="rect5"
       width="100"
       height="3"
       x="0"
       y="48.5"
       ry="1.5" />
    <path
       style="fill:none;fill-rule:evenodd;stroke:#2d61b6;stroke-width:2.18784;stroke-linecap:round;stroke-linejoin:round;stroke-opacity:1;paint-order:markers stroke fill"
       d="m 55.5556,50 c 5.6131,-0.1173 11.2196,-0.5972 16.3955,-1.388 5.1758,-0.7908 9.914,-1.8922 13.8638,-3.1594 3.9498,-1.2673 7.1034,-2.6987 9.2413,-4.0918 2.138,-1.393 3.253,-2.7441 3.2915,-3.8395 0.0386,-1.0954 -1.005,-1.9303 -3.0125,-2.3308 -2.0076,-0.4004 -4.9823,-0.3612 -8.6586,0.2078 -3.6763,0.569 -8.0544,1.672 -12.7702,3.2876 -4.7159,1.6156 -9.767,3.7463 -14.7556,6.2533 -4.9886,2.507 -9.9099,5.3904 -14.4012,8.4137 -4.4912,3.0234 -8.5464,6.1841 -11.8974,9.1886 -3.351,3.0045 -5.9918,5.8479 -7.7897,8.2349 -1.7979,2.3869 -2.7479,4.3108 -2.8677,5.5334 -0.1198,1.2225 0.5938,1.7367 1.9858,1.4122 1.3921,-0.3245 3.4633,-1.4939 5.9587,-3.4973 2.4954,-2.0034 5.4135,-4.8452 8.4527,-8.3655 3.0391,-3.5202 6.1961,-7.7206 9.182,-12.3122 2.986,-4.5915 5.7967,-9.5728 8.2095,-14.5707 2.4127,-4.9978 4.4234,-10.0078 5.9128,-14.6348 1.4895,-4.6271 2.4545,-8.8645 2.8946,-12.3638 0.44,-3.49942 0.3535,-6.25278 -0.1513,-8.02101 -0.5048,-1.76824 -1.4277,-2.54341 -2.5831,-2.2404 -1.1554,0.303 -2.5413,1.69073 -3.9412,4.07569 -1.3999,2.38496 -2.8105,5.77122 -4.0353,9.91002 -1.2248,4.1389 -2.2601,9.0313 -2.9743,14.307 -0.7142,5.2757 -1.1042,10.9324 -1.1329,16.5397 -0.0288,5.6073 0.3055,11.1599 0.9372,16.2392 0.6317,5.0793 1.5606,9.6782 2.6334,13.4594 1.0728,3.7813 2.2873,6.7371 3.4374,8.6674 1.1501,1.9303 2.232,2.8279 3.0346,2.661 0.8026,-0.167 1.3211,-1.4038 1.3902,-3.5723 0.069,-2.1685 -0.3164,-5.2714 -1.2332,-9.0279 C 59.2556,71.219 57.8033,66.8092 55.8524,62.1176 53.9014,57.426 51.4496,52.4557 48.6497,47.6033 45.8499,42.751 42.7022,38.0217 39.4535,33.7692 36.2048,29.5166 32.8578,25.7468 29.71,22.7125 c -3.1478,-3.0343 -6.0913,-5.3272 -8.5388,-6.7649 -2.4474,-1.4377 -4.3921,-2.0154 -5.6064,-1.7694 -1.2142,0.246 -1.691,1.3186 -1.3161,3.0474 0.3749,1.7288 1.6077,4.1143 3.6689,6.8922 2.0611,2.7779 4.9548,5.9465 8.5036,9.2021 3.5487,3.2555 7.7539,6.5947 12.3134,9.7338 4.5594,3.139 9.4713,6.0738 14.3562,8.5925 4.885,2.5186 9.7383,4.6171 14.1671,6.1904 4.4289,1.5732 8.4264,2.6182 11.6548,3.1486 3.2284,0.5304 5.6798,0.5449 7.1322,0.1629 1.4525,-0.382 1.8984,-1.1599 1.2737,-2.1419 C 86.694,58.0241 84.9926,56.84 82.3234,55.6703 79.6542,54.5005 76.0136,53.3485 71.6681,52.4043 67.3225,51.4601 62.2717,50.7275 56.8969,50.3269 51.5222,49.9263 45.8262,49.8608 40.2421,50.1541 c -5.5841,0.2932 -11.0509,0.9468 -15.9883,1.8824 -4.9374,0.9355 -9.3381,2.1527 -12.8794,3.4887 -3.54139,1.3361 -6.21566,2.7886 -7.8427,4.1477 -1.62704,1.359 -2.19983,2.6206 -1.70845,3.5763 0.49138,0.9556 2.05201,1.6004 4.5236,1.7775 2.47159,0.1771 5.85655,-0.1184 9.85925,-0.9506 4.0028,-0.8323 8.6228,-2.2051 13.4812,-4.0673 4.8584,-1.8622 9.952,-4.2156 14.8856,-6.8945 4.9336,-2.6788 9.7019,-5.6825 13.9609,-8.7557 4.2589,-3.0732 8.0023,-6.2126 10.9931,-9.1189 2.9908,-2.9062 5.223,-5.5739 6.6014,-7.7164 1.3783,-2.1424 1.8982,-3.753 1.6137,-4.6161 -0.2844,-0.863 -1.3757,-0.9716 -3.0896,-0.2286 -1.7138,0.743 -4.0505,2.3435 -6.7378,4.753 -2.6873,2.4094 -5.7232,5.6317 -8.8039,9.4716 -3.0807,3.8399 -6.2025,8.2984 -9.0886,13.0603 -2.8861,4.762 -5.5322,9.8252 -7.7388,14.8048 -2.2066,4.9795 -3.9697,9.8703 -5.1993,14.2826 -1.2296,4.4123 -1.923,8.3389 -2.1086,11.4533 -0.1856,3.1145 0.1378,5.4088 0.8387,6.679 0.701,1.2701 1.779,1.5085 3.0358,0.6725 1.2569,-0.8361 2.6903,-2.7525 4.084,-5.6193 1.3938,-2.8667 2.7444,-6.6872 3.8678,-11.1775 1.1233,-4.4903 2.0159,-9.6506 2.5677,-15.0893 0.5518,-5.4387 0.7599,-11.1526 0.6131,-16.7074 -0.1467,-5.5548 -0.6497,-10.9447 -1.419,-15.7651 -0.7693,-4.8205 -1.8044,-9.0641 -2.9346,-12.4236 -1.1302,-3.3595 -2.353,-5.8272 -3.4563,-7.243 -1.1033,-1.4159 -2.0829,-1.7732 -2.7346,-1.0836 -0.6517,0.6896 -0.9705,2.4308 -0.8097,5.0461 0.1608,2.6153 0.806,6.1068 1.9858,10.1652 1.1798,4.0585 2.8978,8.683 5.0875,13.4892 2.1896,4.8061 4.8525,9.7904 7.8094,14.5605 2.9568,4.7702 6.2067,9.3209 9.4856,13.3188 3.2789,3.998 6.5833,7.4371 9.6117,10.0969 3.0283,2.6597 5.775,4.5343 7.9589,5.5475 2.1839,1.0132 3.7982,1.1606 4.6396,0.5147 0.8413,-0.646 0.9027,-2.0876 0.104,-4.1266 C 84.5121,79.3203 82.8475,76.684 80.3843,73.7302 77.921,70.7764 74.6555,67.5072 70.7996,64.2268 66.9438,60.9464 62.497,57.6584 57.786,54.6329 53.075,51.6074 48.1025,48.8487 43.2574,46.5443 38.4123,44.24 33.7,42.3938 29.5059,41.0814 25.3118,39.769 21.6433,38.993 18.8141,38.7112 c -2.8292,-0.2819 -4.8109,-0.0687 -5.7599,0.4981 -0.949,0.5668 -0.8577,1.4862 0.2946,2.5557 1.1524,1.0694 3.3716,2.2863 6.5067,3.4362 3.1351,1.1499 7.189,2.2293 11.8613,3.0618 4.6724,0.8325 9.9629,1.4146 15.4708,1.6482 5.5078,0.2335 11.2295,0.1159 16.7304,-0.3508 5.5009,-0.4666 10.775,-1.2834 15.4265,-2.3483 4.6515,-1.0649 8.6728,-2.377 11.7729,-3.7577 3.1002,-1.3808 5.2714,-2.8273 6.3746,-4.1252 1.1032,-1.298 1.1318,-2.443 0.1193,-3.2349 -1.0125,-0.792 -3.0706,-1.226 -5.9777,-1.165 -2.9072,0.0609 -6.665,0.6216 -10.9513,1.7185 -4.2864,1.0968 -9.1,2.7334 -14.0516,4.8288 -4.9515,2.0953 -10.0371,4.6507 -14.8681,7.4746 -4.8311,2.824 -9.4022,5.9153 -13.3912,9.0027 -3.9891,3.0874 -7.39,6.1671 -9.9988,8.9372 -2.6088,2.7701 -4.4199,5.2248 -5.3756,7.09 -0.9556,1.8653 -1.0518,3.1342 -0.3781,3.617 0.6738,0.4827 2.1195,0.1726 4.1262,-0.9929 2.0067,-1.1654 4.5741,-3.1915 7.4165,-5.9922 2.8423,-2.8007 5.9572,-6.3791 9.0421,-10.5065 3.0849,-4.1274 6.1359,-8.804 8.8914,-13.6917 2.7556,-4.8878 5.2113,-9.9837 7.1929,-14.8952 1.9816,-4.9116 3.4853,-9.6331 4.451,-13.7843 0.9656,-4.1512 1.3908,-7.7246 1.332,-10.41949 -0.0587,-2.69493 -0.6021,-4.50323 -1.4782,-5.2587 -0.876,-0.75546 -2.0836,-0.45068 -3.4152,0.91362 -1.3317,1.36431 -2.7847,3.79355 -4.1464,7.11637 -1.3616,3.3228 -2.6283,7.5417 -3.6311,12.3407 -1.0029,4.7991 -1.7383,10.1775 -2.1195,15.7264 -0.3813,5.549 -0.4058,11.2645 -0.0884,16.713 0.3174,5.4484 0.9777,10.6235 1.868,15.1391 0.8903,4.5156 2.0095,8.3641 3.1725,11.2713 1.1629,2.9073 2.3666,4.8656 3.3961,5.7568 1.0294,0.8912 1.8801,0.709 2.3579,-0.4918 0.4778,-1.2008 0.5775,-3.4243 0.1736,-6.4559 -0.4038,-3.0315 -1.316,-6.8723 -2.7583,-11.1887 -1.4423,-4.3163 -3.418,-9.1064 -5.831,-13.9775 -2.413,-4.8711 -5.2643,-9.819 -8.35,-14.4604 -3.0856,-4.6414 -6.4041,-8.9706 -9.6768,-12.6781 -3.2727,-3.7076 -6.4957,-6.7874 -9.3669,-9.0531 -2.8711,-2.2656 -5.3845,-3.7117 -7.2732,-4.2997 -1.8888,-0.588 -3.1459,-0.314 -3.5954,0.7149 -0.4494,1.0289 -0.0844,2.8145 1.1398,5.1332 1.2241,2.3187 3.3126,5.17 6.1608,8.2624 2.8483,3.0923 6.4591,6.4232 10.588,9.6916 4.129,3.2684 8.7758,6.4705 13.5927,9.3528 4.8168,2.8823 9.8003,5.4407 14.5558,7.5137 4.7556,2.0729 9.2771,3.6568 13.1912,4.706 3.914,1.0492 7.2128,1.5614 9.6101,1.6064 2.3972,0.045 3.8848,-0.3778 4.3163,-1.1073 0.4315,-0.7296 -0.2004,-1.7645 -1.873,-2.8944 -1.6727,-1.1299 -4.3911,-2.3519 -7.9639,-3.4566 -3.5728,-1.1048 -8.002,-2.0886 -12.9568,-2.7915 -4.9548,-0.703 -10.4339,-1.1216 -16.0215,-1.1817 -5.5876,-0.0602 -11.2794,0.2407 -16.6438,0.8742 -5.3643,0.6336 -10.3947,1.6005 -14.7158,2.7768 -4.3211,1.1762 -7.9253,2.5603 -10.55601,3.9604 -2.6307,1.4001 -4.28035,2.8129 -4.85225,4.0227 -0.5719,1.2098 -0.05989,2.2121 1.45971,2.8183 1.51961,0.6062 4.0506,0.8112 7.36055,0.5005 3.31,-0.3108 7.3998,-1.1418 11.9245,-2.5011 4.5248,-1.3592 9.4824,-3.2497 14.4772,-5.5611 4.9949,-2.3114 10.0226,-5.0445 14.7054,-7.9841 4.6829,-2.9396 9.0152,-6.0838 12.7003,-9.1485 3.6851,-3.0648 6.717,-6.0458 8.9266,-8.6424 2.2097,-2.5967 3.5917,-4.8028 4.1263,-6.3605 0.5347,-1.5577 0.2183,-2.4599 -0.8259,-2.5454 -1.0442,-0.0856 -2.8176,0.6522 -5.0856,2.2393 -2.2679,1.5871 -5.0295,4.0286 -7.9893,7.2011 -2.9597,3.1724 -6.1148,7.0782 -9.1676,11.4572 -3.0528,4.3791 -5.9994,9.2308 -8.5962,14.1977 -2.5968,4.9669 -4.8395,10.0452 -6.5809,14.8391 -1.7413,4.7939 -2.9777,9.2969 -3.679,13.1429 -0.7012,3.8461 -0.8653,7.0271 -0.5754,9.2719 0.2899,2.2447 1.0339,3.5449 2.062,3.7742 1.028,0.2293 2.3385,-0.6193 3.7178,-2.5017 1.3793,-1.8824 2.8245,-4.8033 4.1293,-8.5517 1.3048,-3.7483 2.4657,-8.3257 3.3312,-13.3875 0.8656,-5.0617 1.4324,-10.6062 1.6382,-16.2116 0.2059,-5.6053 0.0485,-11.2669 -0.4316,-16.5563 -0.4801,-5.2893 -1.2832,-10.1998 -2.2754,-14.3677 -0.9922,-4.168 -2.1718,-7.5858 -3.3416,-10.0149 -1.1699,-2.4292 -2.3266,-3.8623 -3.2556,-4.2241 -0.9289,-0.3618 -1.6254,0.3536 -1.9082,2.0491 -0.2827,1.6954 -0.1467,4.3742 0.5102,7.7874 0.657,3.4131 1.8394,7.561 3.54,12.0889 1.7006,4.528 3.9222,9.4336 6.5397,14.3199 2.6175,4.8863 5.6314,9.7487 8.8151,14.2167 3.1837,4.468 6.535,8.5357 9.7642,11.9207 3.2293,3.385 6.3318,6.0813 9.0089,7.938 2.6772,1.8568 4.9224,2.8689 6.4869,3.0357 1.5645,0.1667 2.4413,-0.5153 2.4839,-1.9063 0.0426,-1.391 -0.7554,-3.4922 -2.4019,-6.0579 C 81.8276,75.3229 79.3277,72.2938 76.1162,69.1008 72.9047,65.9078 68.9793,62.5539 64.6148,59.3332 60.2503,56.1125 55.4476,53.0289 50.5724,50.3165 45.6971,47.6041 40.7533,45.267 36.1368,43.439 31.5203,41.611 27.2376,40.2954 23.6465,39.5081 c -3.5912,-0.7873 -6.483,-1.0446 -8.4198,-0.8674 -1.9369,0.1773 -2.9108,0.789 -2.8159,1.6574 0.0949,0.8685 1.2653,1.9918 3.4453,3.1551 2.18,1.1633 5.374,2.3633 9.3517,3.3989 3.9776,1.0356 8.7404,1.903 13.9301,2.4611 5.1898,0.558 10.8045,0.8034 16.4177,0.6868"
       title="(0.5+4*sin(6*x))/4.5"
       id="path6" />
  </g>
</svg>
