<?xml version="1.0" encoding="UTF-8" standalone="no"?>
<!-- Created with Inkscape (http://www.inkscape.org/) -->

<svg
   width="100%"
   height="100%"
   viewBox="0 0 101.5002 36.222435"
   version="1.1"
   id="svg1"
   inkscape:version="1.3 (0e150ed, 2023-07-21)"
   sodipodi:docname="fourier.svg"
   xmlns:inkscape="http://www.inkscape.org/namespaces/inkscape"
   xmlns:sodipodi="http://sodipodi.sourceforge.net/DTD/sodipodi-0.dtd"
   xmlns="http://www.w3.org/2000/svg"
   xmlns:svg="http://www.w3.org/2000/svg">
  <sodipodi:namedview
     id="namedview1"
     pagecolor="#ffffff"
     bordercolor="#000000"
     borderopacity="0.25"
     inkscape:showpageshadow="2"
     inkscape:pageopacity="0.0"
     inkscape:pagecheckerboard="0"
     inkscape:deskcolor="#d1d1d1"
     inkscape:document-units="mm"
     inkscape:zoom="0.69662547"
     inkscape:cx="405.52638"
     inkscape:cy="658.1729"
     inkscape:window-width="1512"
     inkscape:window-height="848"
     inkscape:window-x="0"
     inkscape:window-y="38"
     inkscape:window-maximized="1"
     inkscape:current-layer="layer1" />
  <defs
     id="defs1" />
  <g
     inkscape:label="Layer 1"
     inkscape:groupmode="layer"
     id="layer1"
     transform="translate(-87.250002,-93.168004)">
    <path
       style="fill:none;fill-opacity:1;fill-rule:evenodd;stroke:#0c2376;stroke-width:1.5;stroke-linecap:round;stroke-linejoin:round;stroke-dasharray:none;stroke-opacity:1;paint-order:markers stroke fill"
       d="m 88,105.89877 c 0.1675,-0.2841 0.335,-0.47332 0.5025,-0.75634 0.1675,-0.28303 0.335,-0.47117 0.5026,-0.75311 0.1675,-0.28141 0.335,-0.46793 0.5025,-0.74664 0.1675,-0.27871 0.335,-0.46308 0.5025,-0.73802 0.1675,-0.27494 0.335,-0.45661 0.5025,-0.72605 0.1675,-0.26965 0.335,-0.44766 0.5025,-0.71122 0.1675,-0.26356 0.335,-0.4371 0.5025,-0.69354 0.1675,-0.25639 0.335,-0.42486 0.5025,-0.67311 0.1675,-0.248247 0.335,-0.410897 0.5025,-0.649977 0.1675,-0.23909 0.335,-0.39532 0.5026,-0.62432 0.1675,-0.22896 0.335,-0.37818 0.5025,-0.59613 0.1675,-0.21796 0.335,-0.35947 0.5025,-0.56551 0.1675,-0.20609 0.335,-0.33941 0.5025,-0.53273 0.1675,-0.19337 0.335,-0.3179 0.5025,-0.49779 0.1675,-0.17985 0.335,-0.29516 0.5025,-0.46082 0.1675,-0.16566 0.335,-0.27127 0.5025,-0.42211 0.168,-0.15078 0.335,-0.24626 0.503,-0.38162 0.167,-0.13531 0.335,-0.22033 0.501997,-0.33963 0.168,-0.11935 0.335,-0.19348 0.503,-0.29634 0.167,-0.10286 0.335,-0.16588 0.502,-0.25181 0.168,-0.086 0.335,-0.13763 0.503,-0.20631 0.167,-0.0687 0.335,-0.10879 0.502,-0.16 0.168003,-0.0512 0.335003,-0.0795 0.503003,-0.11299 0.167,-0.0335 0.335,-0.0499 0.502,-0.0656 0.168,-0.0157 0.335,-0.0202 0.503,-0.0179 0.167,0.002 0.335,0.01 0.502,0.0298 0.168,0.0202 0.335,0.0395 0.503,0.0775 0.167,0.0379 0.335,0.0692 0.502,0.1248 0.168,0.0556 0.335,0.0985 0.503,0.17159 0.167,0.0731 0.335,0.1276 0.502,0.21779 0.168,0.0902 0.335,0.15607 0.503,0.26308 0.167,0.10701 0.335,0.18388 0.502,0.30728 0.168,0.12334 0.335,0.211 0.503,0.35025 0.167,0.13924 0.335,0.2373 0.502,0.39192 0.168,0.15455 0.335,0.26264 0.503,0.43192 0.167,0.16927 0.335,0.28695 0.502,0.47025 0.168,0.18329 0.335,0.31008 0.503,0.50669 0.167,0.1966 0.335,0.33202 0.502,0.54114 0.168,0.20911 0.335,0.35262 0.503,0.57337 0.167,0.22082 0.335,0.37182 0.502,0.60341 0.168,0.23159 0.335,0.38949 0.503,0.63095 0.167,0.24146 0.335,0.405667 0.502,0.656017 0.168,0.25041 0.335,0.42017 0.503,0.6785 0.167,0.25828 0.335,0.43305 0.502,0.69823 0.168,0.26518 0.335,0.44416 0.503,0.71543 0.167,0.27062 0.335,0.45337 0.502,0.72885 0.168,0.27602 0.335,0.46146 0.503,0.74071 0.167,0.27925 0.335,0.46685 0.502,0.7488 0.168,0.28194 0.335,0.47063 0.503,0.75419 0.167,0.28302 0.335,0.47224 0.502,0.7558 0.168,0.2841 0.335,0.47279 0.503,0.75581 0.167,0.28248 0.335,0.47063 0.502,0.75149 0.168,0.28087 0.335,0.46739 0.503,0.74503 0.167,0.27763 0.335,0.462 0.503,0.73532 0.167,0.27386 0.335,0.45445 0.502,0.72292 0.168,0.26793 0.335,0.44475 0.503,0.70675 0.167,0.262 0.335,0.4345 0.502,0.68896 0.168,0.25445 0.335,0.42156 0.503,0.66739 0.167,0.24583 0.335,0.40701 0.502,0.64368 0.168,0.23666 0.335,0.39138 0.503,0.61779 0.167,0.22642 0.335,0.37359 0.502,0.58869 0.168,0.2151 0.335,0.35418 0.503,0.55742 0.167,0.2027 0.335,0.33424 0.502,0.524 0.168,0.1903 0.335,0.31267 0.503,0.48895 0.167,0.17629 0.335,0.2895 0.502,0.45122 0.168,0.16227 0.335,0.26524 0.503,0.41187 0.167,0.14717 0.335,0.23989 0.502,0.37143 0.168,0.13154 0.335,0.21402 0.503,0.32885 0.167,0.11536 0.335,0.18706 0.502,0.28572 0.168,0.0986 0.335,0.15849 0.503,0.24043 0.167,0.0814 0.335,0.13046 0.502,0.19461 0.168,0.0647 0.335,0.10135 0.503,0.14825 0.167,0.0469 0.335,0.0722 0.502,0.10135 0.168,0.0291 0.335,0.0426 0.503,0.0539 0.167,0.0108 0.335,0.0124 0.502,0.006 0.168,-0.007 0.335,-0.0173 0.503,-0.0421 0.167,-0.0248 0.335,-0.0469 0.502,-0.0895 0.168,-0.0421 0.335,-0.0765 0.503,-0.13639 0.167,-0.0598 0.335,-0.10566 0.502,-0.18329 0.168,-0.0771 0.335,-0.13477 0.503,-0.22911 0.167,-0.0943 0.335,-0.16281 0.502,-0.2744 0.168,-0.11105 0.335,-0.19084 0.503,-0.31806 0.167,-0.12723 0.335,-0.2178 0.502,-0.36065 0.168,-0.1434 0.335,-0.24367 0.503,-0.40217 0.167,-0.15849 0.335,-0.269 0.502,-0.44151 0.168,-0.17305 0.335,-0.29273 0.503,-0.47979 0.167,-0.18653 0.335,-0.31537 0.502,-0.51537 0.168,-0.20001 0.335,-0.33748 0.503,-0.54934 0.167,-0.2124 0.335,-0.35742 0.502,-0.58114 0.168,-0.22372 0.335,-0.37628 0.503,-0.61079 0.167,-0.23396 0.335,-0.39354 0.502,-0.6372 0.168,-0.24367 0.335,-0.40971 0.503,-0.66201 0.167,-0.25229 0.335,-0.42372 0.502,-0.68357 0.168,-0.26038 0.336,-0.43612 0.503,-0.70297 0.168,-0.26631 0.335,-0.44637 0.503,-0.71861 0.167,-0.27224 0.335,-0.45553 0.502,-0.73262 0.168,-0.27656 0.335,-0.46255 0.503,-0.74287 0.167,-0.27979 0.335,-0.46793 0.502,-0.75042 0.168,-0.28194 0.335,-0.47116 0.503,-0.75473 0.167,-0.28356 0.335,-0.47278 0.502,-0.75634 0.168,-0.28356 0.335,-0.47224 0.503,-0.75473 0.167,-0.28248 0.335,-0.47009 0.502,-0.75041 0.168,-0.28033 0.335,-0.46632 0.503,-0.74287 0.167,-0.27655 0.335,-0.45985 0.502,-0.73263 0.168,-0.27224 0.335,-0.45197 0.503,-0.71871 0.167,-0.26674 0.335,-0.4426 0.502,-0.70271 0.168,-0.26016 0.335,-0.43122 0.503,-0.68367 0.167,-0.25246 0.335,-0.41812 0.502,-0.661897 0.168,-0.24383 0.335,-0.40335 0.503,-0.63747 0.167,-0.23418 0.335,-0.38696 0.502,-0.61052 0.168,-0.22356 0.335,-0.36901 0.503,-0.58109 0.167,-0.21213 0.335,-0.3496 0.502,-0.54944 0.168,-0.19979 0.335,-0.32879 0.503,-0.51548 0.167,-0.18669 0.335,-0.30669 0.502,-0.47958 0.168,-0.17283 0.335,-0.28334 0.503,-0.44167 0.167,-0.15828 0.335,-0.25893 0.502,-0.40206 0.168,-0.14313 0.335,-0.23342 0.503,-0.36081 0.167,-0.12739 0.335,-0.20701 0.502,-0.31812 0.168,-0.11116 0.335,-0.17979 0.503,-0.27424 0.167,-0.0944 0.335,-0.1518 0.502,-0.22916 0.168,-0.0774 0.335,-0.12324 0.503,-0.18324 0.167,-0.0601 0.335,-0.0942 0.502,-0.13661 0.168,-0.0424 0.335,-0.0647 0.503,-0.0893 0.167,-0.0246 0.335,-0.035 0.502,-0.0418 0.168,-0.007 0.335,-0.005 0.503,0.006 0.167,0.0112 0.335,0.0246 0.502,0.0537 0.168,0.0291 0.335,0.0544 0.503,0.10119 0.167,0.0468 0.335,0.0839 0.502,0.14831 0.168,0.0644 0.335,0.1131 0.503,0.19477 0.167,0.0817 0.335,0.14189 0.502,0.24054 0.168,0.0987 0.335,0.17009 0.503,0.28529 0.167,0.11526 0.335,0.19758 0.502,0.32895 0.168,0.13138 0.335,0.22432 0.503,0.37127 0.168,0.14702 0.335,0.25014 0.503,0.41214 0.167,0.162 0.335,0.27494 0.502,0.45133 0.168,0.17633 0.335,0.29865 0.503,0.48868 0.167,0.19009 0.335,0.32125 0.502,0.52422 0.168,0.20291 0.335,0.34248 0.503,0.55752 0.167,0.21505 0.335,0.36238 0.502,0.58869 0.168,0.22631 0.335,0.38082 0.503,0.61748 0.167,0.23666 0.335,0.39774 0.502,0.64383 0.168,0.246037 0.335,0.413107 0.503,0.667557 0.167,0.2545 0.335,0.42685 0.502,0.68869 0.168,0.26189 0.335,0.43882 0.503,0.70707 0.167,0.26814 0.335,0.44928 0.502,0.7226 0.168,0.27332 0.335,0.45769 0.503,0.73532 0.167,0.27763 0.335,0.46416 0.502,0.74502 0.168,0.28087 0.335,0.46901 0.503,0.7515 0.167,0.28302 0.335,0.47224 0.502,0.7558 0.168,0.28356 0.335,0.47278 0.503,0.75635 0.167,0.28302 0.335,0.4717 0.502,0.75365 0.168,0.28194 0.335,0.46954 0.503,0.74879 0.167,0.27979 0.335,0.4647 0.502,0.74071 0.168,0.27548 0.335,0.45823 0.503,0.72939 0.167,0.27063 0.335,0.44961 0.502,0.71484 0.168,0.26523 0.335,0.4399 0.503,0.69866 0.167,0.25823 0.335,0.42804 0.502,0.67818 0.168,0.25068 0.335,0.41456 0.503,0.65607 0.167,0.24152 0.335,0.39947 0.502,0.63074 0.168,0.23181 0.335,0.38275 0.503,0.60378 0.167,0.22049 0.335,0.36389 0.502,0.57306 0.168,0.20916 0.335,0.34447 0.503,0.54124 0.167,0.19677 0.335,0.32346 0.502,0.50675 0.168,0.18329 0.335,0.30081 0.503,0.47009 0.167,0.16927 0.335,0.27763 0.502,0.43235 0.168,0.15418 0.335,0.25229 0.503,0.39138 0.167,0.13962 0.335,0.22695 0.502,0.35041 0.168,0.12345 0.335,0.20054 0.503,0.30728 0.167,0.10728 0.335,0.17305 0.502,0.26308 0.168,0.0906 0.335,0.14501 0.503,0.21779 0.167,0.0733 0.335,0.1159 0.502,0.17197 0.168,0.0555 0.335,0.0868 0.503,0.12453 0.167,0.0377 0.335,0.0571 0.502,0.0776 0.168,0.0199 0.336,0.0275 0.503,0.0297 0.168,0.002 0.335,-0.002 0.503,-0.0178 0.167,-0.0156 0.335,-0.0323 0.502,-0.0658 0.168,-0.0334 0.335,-0.0615 0.503,-0.11267 0.167,-0.0512 0.335,-0.0916 0.502,-0.16011 0.168,-0.069 0.335,-0.12022 0.503,-0.20647 0.167,-0.0857 0.335,-0.14879 0.502,-0.25176 0.168,-0.10297 0.335,-0.17682 0.503,-0.2965 0.167,-0.11914 0.335,-0.20432 0.502,-0.33963 0.168,-0.13531 0.335,-0.23073 0.503,-0.38167 0.167,-0.15041 0.335,-0.25607 0.502,-0.42211 0.168,-0.1655 0.335,-0.28087 0.503,-0.46039 0.167,-0.18005 0.335,-0.30458 0.502,-0.49812 0.168,-0.19299 0.335,-0.32669 0.503,-0.53262 0.167,-0.20593 0.335,-0.34771 0.502,-0.56551 0.168,-0.21779 0.335,-0.36712 0.503,-0.59623 0.167,-0.22911 0.335,-0.38491 0.502,-0.62427 0.168,-0.23881 0.335,-0.40162 0.503,-0.65014 0.167,-0.24798 0.335,-0.41672 0.502,-0.67279 0.168,-0.2566 0.335,-0.43019 0.503,-0.69381 0.167,-0.26361 0.335,-0.44151 0.502,-0.71106 0.168,-0.26954 0.335,-0.45122 0.503,-0.72615 0.167,-0.2744 0.335,-0.45931 0.502,-0.73802 0.168,-0.27871 0.335,-0.46524 0.503,-0.74664 0.167,-0.28141 0.335,-0.47009 0.502,-0.75311 0.168,-0.28303 0.335,-0.47225 0.503,-0.75581"
       title="(0.5+4*sin(1*x))/4.5"
       id="path8" />
    <path
       style="fill:none;fill-opacity:1;fill-rule:evenodd;stroke:#2352a6;stroke-width:1.4581;stroke-linecap:round;stroke-linejoin:round;stroke-dasharray:none;stroke-opacity:1;paint-order:markers stroke fill"
       d="m 88,123.08728 c 0.1675,-0.526 0.335,0.175 0.5025,-0.35 0.1675,-0.525 0.335,0.173 0.5026,-0.349 0.1675,-0.522 0.335,0.17 0.5025,-0.347 0.1675,-0.517 0.335,0.168 0.5025,-0.342 0.1675,-0.51 0.335,0.163 0.5025,-0.337 0.1675,-0.5 0.335,0.159 0.5025,-0.33 0.1675,-0.488 0.335,0.154 0.5025,-0.321 0.1675,-0.476 0.335,0.148 0.5025,-0.312 0.1675,-0.461 0.335,0.142 0.5025,-0.302 0.1675,-0.443 0.335,0.135 0.5026,-0.289 0.1675,-0.425 0.335,0.128 0.5025,-0.277 0.1675,-0.404 0.335,0.12 0.5025,-0.262 0.1675,-0.382 0.335,0.112 0.5025,-0.247 0.1675,-0.359 0.335,0.103 0.5025,-0.231 0.1675,-0.333 0.335,0.094 0.5025,-0.214 0.1675,-0.307 0.335,0.084 0.5025,-0.195 0.168,-0.28 0.335,0.074 0.503,-0.177 0.167,-0.251 0.335,0.064 0.502,-0.158 0.168,-0.221 0.335,0.054 0.503,-0.137 0.167003,-0.191 0.335003,0.042 0.502003,-0.117 0.168,-0.159 0.335,0.032 0.503,-0.096 0.167,-0.127 0.335,0.021 0.502,-0.074 0.168,-0.095 0.335,0.01 0.503,-0.052 0.167,-0.062 0.335,-0.002 0.501997,-0.031 0.168,-0.029 0.335,-0.012 0.503,-0.008 0.167,0.004 0.335,-0.024 0.502,0.014 0.168,0.037 0.335,-0.035 0.503,0.036 0.167,0.07 0.335,-0.046 0.502,0.058 0.168,0.103 0.335,-0.056 0.503,0.079 0.167,0.136 0.335,-0.066 0.502,0.101 0.168,0.168 0.335,-0.076 0.503,0.122 0.167,0.199 0.335,-0.086 0.502,0.143 0.168,0.229 0.335,-0.096 0.503,0.162 0.167,0.258 0.335,-0.105 0.502,0.182 0.168,0.287 0.335,-0.114 0.503,0.2 0.167,0.314 0.335,-0.122 0.502,0.218 0.168,0.34 0.335,-0.129 0.503,0.235 0.167,0.365 0.335,-0.137 0.502,0.251 0.168,0.388 0.335,-0.143 0.503,0.266 0.167,0.41 0.335,-0.15 0.502,0.28 0.168,0.43 0.335,-0.155 0.503,0.293 0.167,0.447 0.335,-0.161 0.502,0.304 0.168,0.464 0.335,-0.165 0.503,0.314 0.167,0.48 0.335,-0.168 0.502,0.324 0.168,0.492 0.335,-0.171 0.503,0.332 0.167,0.503 0.335,-0.173 0.502,0.338 0.168,0.512 0.335,-0.175 0.503,0.343 0.167,0.519 0.335,-0.175 0.502,0.348 0.168,0.523 0.335,-0.176 0.503,0.349 0.167,0.526 0.335,-0.175 0.502,0.351 0.168,0.526 0.335,-0.174 0.503,0.35 0.167,0.525 0.335,-0.172 0.502,0.349 0.168,0.521 0.335,-0.17 0.503,0.346 0.167,0.515 0.335,-0.167 0.503,0.341 0.167,0.507 0.335,-0.163 0.502,0.335 0.168,0.497 0.335,-0.158 0.503,0.328 0.167,0.485 0.335,-0.153 0.502,0.319 0.168,0.472 0.335,-0.147 0.503,0.309 0.167,0.457 0.335,-0.14 0.502,0.299 0.168,0.439 0.335,-0.133 0.503,0.286 0.167,0.42 0.335,-0.126 0.502,0.273 0.168,0.399 0.335,-0.118 0.503,0.259 0.167,0.376 0.335,-0.109 0.502,0.243 0.168,0.353 0.335,-0.1 0.503,0.227 0.167,0.327 0.335,-0.092 0.502,0.209 0.168,0.3 0.335,-0.082 0.503,0.191 0.167,0.273 0.335,-0.071 0.502,0.172 0.168,0.244 0.335,-0.061 0.503,0.153 0.167,0.214 0.335,-0.051 0.502,0.132 0.168,0.183 0.335,-0.04 0.503,0.112 0.167,0.151 0.335,-0.029 0.502,0.09 0.168,0.119 0.335,-0.018 0.503,0.069 0.167,0.087 0.335,-0.007 0.502,0.047 0.168,0.054 0.335,0.004 0.503,0.025 0.167,0.02 0.335,0.015 0.502,0.002 0.168,-0.012 0.335,0.027 0.503,-0.019 0.167,-0.046 0.335,0.037 0.502,-0.041 0.168,-0.079 0.335,0.048 0.503,-0.064 0.167,-0.111 0.335,0.059 0.502,-0.085 0.168,-0.143 0.335,0.069 0.503,-0.106 0.167,-0.175 0.335,0.079 0.502,-0.127 0.168,-0.206 0.335,0.089 0.503,-0.148 0.167,-0.236 0.335,0.098 0.502,-0.167 0.168,-0.266 0.335,0.107 0.503,-0.187 0.167,-0.293 0.335,0.116 0.502,-0.204 0.168,-0.321 0.335,0.124 0.503,-0.223 0.167,-0.346 0.335,0.132 0.502,-0.239 0.168,-0.37 0.335,0.139 0.503,-0.255 0.167,-0.393 0.335,0.146 0.502,-0.269 0.168,-0.415 0.335,0.151 0.503,-0.283 0.167,-0.435 0.335,0.156 0.502,-0.296 0.168,-0.452 0.335,0.162 0.503,-0.307 0.167,-0.468 0.335,0.166 0.502,-0.317 0.168,-0.482 0.336,0.169 0.503,-0.326 0.168,-0.494 0.335,0.172 0.503,-0.333 0.167,-0.505 0.335,0.174 0.502,-0.34 0.168,-0.513 0.335,0.175 0.503,-0.344 0.167,-0.52 0.335,0.176 0.502,-0.348 0.168,-0.524 0.335,0.176 0.503,-0.35 0.167,-0.526 0.335,0.175 0.502,-0.351 0.168,-0.526 0.335,0.174 0.503,-0.35 0.167,-0.524 0.335,0.172 0.502,-0.348 0.168,-0.52 0.335,0.169 0.503,-0.345 0.167,-0.513 0.335,0.166 0.502,-0.339 0.168,-0.505 0.335,0.161 0.503,-0.334 0.167,-0.494 0.335,0.157 0.502,-0.325 0.168,-0.483 0.335,0.151 0.503,-0.318 0.167,-0.468 0.335,0.146 0.502,-0.306 0.168,-0.453 0.335,0.138 0.503,-0.296 0.167,-0.434 0.335,0.132 0.502,-0.283 0.168,-0.415 0.335,0.124 0.503,-0.27 0.167,-0.393 0.335,0.116 0.502,-0.254 0.168,-0.371 0.335,0.107 0.503,-0.24 0.167,-0.346 0.335,0.099 0.502,-0.222 0.168,-0.321 0.335,0.089 0.503,-0.205 0.167,-0.293 0.335,0.079 0.502,-0.186 0.168,-0.266 0.335,0.069 0.503,-0.168 0.167,-0.236 0.335,0.059 0.502,-0.147 0.168,-0.206 0.335,0.048 0.503,-0.127 0.167,-0.175 0.335,0.037 0.502,-0.107 0.168,-0.143 0.335,0.027 0.503,-0.084 0.167,-0.112 0.335,0.015 0.502,-0.064 0.168,-0.078 0.335,0.004 0.503,-0.041 0.167,-0.046 0.335,-0.007 0.502,-0.02 0.168,-0.012 0.335,-0.018 0.503,0.003 0.167,0.021 0.335,-0.029 0.502,0.025 0.168,0.054 0.335,-0.04 0.503,0.047 0.167,0.087 0.335,-0.051 0.502,0.069 0.168,0.119 0.335,-0.061 0.503,0.09 0.167,0.152 0.335,-0.071 0.502,0.112 0.168,0.183 0.335,-0.082 0.503,0.132 0.167,0.214 0.335,-0.091 0.502,0.152 0.168,0.244 0.335,-0.1 0.503,0.173 0.168,0.272 0.335,-0.11 0.503,0.191 0.167,0.3 0.335,-0.118 0.502,0.209 0.168,0.327 0.335,-0.126 0.503,0.227 0.167,0.352 0.335,-0.134 0.502,0.243 0.168,0.376 0.335,-0.141 0.503,0.258 0.167,0.399 0.335,-0.146 0.502,0.273 0.168,0.42 0.335,-0.152 0.503,0.287 0.167,0.439 0.335,-0.158 0.502,0.298 0.168,0.457 0.335,-0.162 0.503,0.31 0.167,0.472 0.335,-0.167 0.502,0.319 0.168,0.486 0.335,-0.169 0.503,0.328 0.167,0.498 0.335,-0.172 0.502,0.335 0.168,0.508 0.335,-0.174 0.503,0.341 0.167,0.515 0.335,-0.175 0.502,0.346 0.168,0.521 0.335,-0.176 0.503,0.348 0.167,0.525 0.335,-0.175 0.502,0.351 0.168,0.526 0.335,-0.175 0.503,0.35 0.167,0.526 0.335,-0.173 0.502,0.35 0.168,0.523 0.335,-0.171 0.503,0.347 0.167,0.519 0.335,-0.168 0.502,0.344 0.168,0.511 0.335,-0.165 0.503,0.338 0.167,0.503 0.335,-0.16 0.502,0.332 0.168,0.491 0.335,-0.156 0.503,0.323 0.167,0.48 0.335,-0.149 0.502,0.315 0.168,0.464 0.335,-0.144 0.503,0.304 0.167,0.448 0.335,-0.137 0.502,0.293 0.168,0.429 0.335,-0.13 0.503,0.28 0.167,0.409 0.335,-0.122 0.502,0.266 0.168,0.387 0.335,-0.114 0.503,0.251 0.167,0.364 0.335,-0.106 0.502,0.234 0.168,0.34 0.335,-0.095 0.503,0.219 0.167,0.314 0.335,-0.087 0.502,0.2 0.168,0.287 0.335,-0.077 0.503,0.182 0.167,0.258 0.335,-0.067 0.502,0.162 0.168,0.229 0.335,-0.056 0.503,0.143 0.167,0.198 0.335,-0.046 0.502,0.122 0.168,0.167 0.335,-0.035 0.503,0.101 0.167,0.135 0.335,-0.024 0.502,0.079 0.168,0.103 0.335,-0.012 0.503,0.058 0.167,0.07 0.335,-0.001 0.502,0.036 0.168,0.037 0.336,0.01 0.503,0.014 0.168,0.004 0.335,0.021 0.503,-0.009 0.167,-0.029 0.335,0.032 0.502,-0.03 0.168,-0.062 0.335,0.043 0.503,-0.052 0.167,-0.095 0.335,0.053 0.502,-0.075 0.168,-0.127 0.335,0.064 0.503,-0.095 0.167,-0.16 0.335,0.074 0.502,-0.117 0.168,-0.191 0.335,0.084 0.503,-0.137 0.167,-0.222 0.335,0.093 0.502,-0.158 0.168,-0.251 0.335,0.103 0.503,-0.177 0.167,-0.28 0.335,0.112 0.502,-0.196 0.168,-0.307 0.335,0.12 0.503,-0.213 0.167,-0.334 0.335,0.127 0.502,-0.231 0.168,-0.359 0.335,0.135 0.503,-0.247 0.167,-0.383 0.335,0.142 0.502,-0.263 0.168,-0.404 0.335,0.149 0.503,-0.276 0.167,-0.425 0.335,0.154 0.502,-0.289 0.168,-0.444 0.335,0.159 0.503,-0.302 0.167,-0.46 0.335,0.164 0.502,-0.312 0.168,-0.476 0.335,0.167 0.503,-0.322 0.167,-0.489 0.335,0.171 0.502,-0.33 0.168,-0.5 0.335,0.173 0.503,-0.336 0.167,-0.51 0.335,0.174 0.502,-0.342 0.168,-0.517 0.335,0.175 0.503,-0.347 0.167,-0.522 0.335,0.176 0.502,-0.349 0.168,-0.525 0.335,0.176 0.503,-0.351"
       title="(0+1*sin(1*x))/4.5"
       id="path9" />
  </g>
</svg>
