<?xml version="1.0" encoding="UTF-8" standalone="no"?>
<!-- Created with Inkscape (http://www.inkscape.org/) -->

<svg
   width="100%"
   height="100%"
   viewBox="0 0 99.999992 100"
   version="1.1"
   id="svg1"
   inkscape:version="1.3 (0e150ed, 2023-07-21)"
   sodipodi:docname="fourier.svg"
   xmlns:inkscape="http://www.inkscape.org/namespaces/inkscape"
   xmlns:sodipodi="http://sodipodi.sourceforge.net/DTD/sodipodi-0.dtd"
   xmlns="http://www.w3.org/2000/svg"
   xmlns:svg="http://www.w3.org/2000/svg">
  <sodipodi:namedview
     id="namedview1"
     pagecolor="#ffffff"
     bordercolor="#000000"
     borderopacity="0.25"
     inkscape:showpageshadow="2"
     inkscape:pageopacity="0.0"
     inkscape:pagecheckerboard="0"
     inkscape:deskcolor="#d1d1d1"
     inkscape:document-units="mm"
     inkscape:zoom="0.69662547"
     inkscape:cx="405.52638"
     inkscape:cy="658.1729"
     inkscape:window-width="1512"
     inkscape:window-height="848"
     inkscape:window-x="0"
     inkscape:window-y="38"
     inkscape:window-maximized="1"
     inkscape:current-layer="layer1" />
  <defs
     id="defs1" />
  <g
     inkscape:label="Layer 1"
     inkscape:groupmode="layer"
     id="layer1"
     transform="translate(-81.992289,-200.88299)">
    <rect
       style="fill:#000000;fill-opacity:1;fill-rule:evenodd;stroke:none;stroke-width:1.93635;stroke-linecap:round;stroke-linejoin:round;paint-order:markers stroke fill"
       id="rect4-1-6"
       width="3"
       height="100"
       x="130.49228"
       y="200.883"
       ry="1.75" />
    <rect
       style="fill:#000000;fill-opacity:1;fill-rule:evenodd;stroke:none;stroke-width:1.27738;stroke-linecap:round;stroke-linejoin:round;stroke-dasharray:none;paint-order:markers stroke fill"
       id="rect5-8-8"
       width="100"
       height="3"
       x="81.992287"
       y="249.383"
       ry="1.5" />
    <path
       style="fill:none;fill-rule:evenodd;stroke:#2352a6;stroke-width:2.188;stroke-linecap:round;stroke-linejoin:round;stroke-dasharray:none;paint-order:markers stroke fill"
       d="m 131.99228,250.88299 c 2.1049,-1e-4 4.2098,-0.1335 6.2854,-0.3974 2.0757,-0.264 4.1219,-0.659 6.1107,-1.1765 1.9888,-0.5176 3.9199,-1.1583 5.7673,-1.9088 1.8474,-0.7505 3.6107,-1.6113 5.267,-2.5648 1.6564,-0.9534 3.2051,-1.9999 4.6273,-3.118 1.4223,-1.1181 2.7171,-2.3081 3.8702,-3.5457 1.1531,-1.2375 2.1636,-2.5228 3.0218,-3.8293 0.8583,-1.3066 1.5634,-2.6344 2.1113,-3.956 0.5478,-1.3216 0.9374,-2.63689 1.1699,-3.91819 0.2324,-1.2813 0.3068,-2.5284 0.2297,-3.7145 -0.0772,-1.1862 -0.3067,-2.311 -0.6772,-3.3496 -0.3705,-1.0387 -0.8826,-1.9906 -1.5203,-2.834 -0.6377,-0.8433 -1.4017,-1.5772 -2.2716,-2.1835 -0.8699,-0.6063 -1.8465,-1.0841 -2.9061,-1.4194 -1.0597,-0.3354 -2.2029,-0.5273 -3.4038,-0.5668 -1.2008,-0.0394 -2.4596,0.0747 -3.7489,0.3461 -1.2893,0.2715 -2.6093,0.7013 -3.932,1.2882 -1.3228,0.5868 -2.6482,1.3315 -3.9491,2.2274 -1.3008,0.8959 -2.5769,1.9438 -3.8022,3.1318 -1.2254,1.1881 -2.3998,2.5171 -3.4998,3.9704 -1.1,1.4534 -2.1251,3.0317 -3.0553,4.7142 -0.9302,1.68259 -1.7649,3.46989 -2.4879,5.33759 -0.7231,1.8678 -1.3338,3.8165 -1.8208,5.8191 -0.487,2.0026 -0.8495,4.0595 -1.0811,6.1419 -0.2315,2.0825 -0.3314,4.1906 -0.2983,6.2951 0.0331,2.1045 0.1999,4.2052 0.4964,6.2731 0.2964,2.0679 0.7232,4.1027 1.2712,6.0768 0.548,1.974 1.2178,3.8868 1.9955,5.713 0.7776,1.8261 1.6638,3.565 2.64,5.1943 0.9763,1.6293 2.0432,3.1483 3.1788,4.5386 1.1356,1.3903 2.3403,2.6511 3.5894,3.7685 1.249,1.1175 2.5425,2.0907 3.8539,2.9108 1.3114,0.8201 2.6408,1.4861 3.9604,1.9946 1.3196,0.5085 2.6294,0.8584 3.9017,1.0516 1.2724,0.1932 2.5071,0.2288 3.6776,0.1139 1.1705,-0.1149 2.2763,-0.3812 3.2931,-0.7867 1.0168,-0.4055 1.9438,-0.951 2.7596,-1.6198 0.8158,-0.6688 1.5197,-1.4616 2.0938,-2.3577 0.5741,-0.8961 1.0176,-1.8961 1.3171,-2.9762 0.2995,-1.0801 0.4541,-2.2406 0.4553,-3.4555 0.001,-1.2148 -0.152,-2.4843 -0.4629,-3.7808 -0.3108,-1.2965 -0.7803,-2.6202 -1.4063,-3.9432 -0.626,-1.323 -1.4095,-2.6453 -2.3431,-3.9396 -0.9335,-1.2943 -2.018,-2.5604 -3.2409,-3.7727 -1.2228,-1.2124 -2.5849,-2.3706 -4.0691,-3.4517 -1.4841,-1.081 -3.0909,-2.0845 -4.7992,-2.9906 -1.7082,-0.9062 -3.5184,-1.7145 -5.4059,-2.4095 -1.8875,-0.6949 -3.8527,-1.2757 -5.8684,-1.7317 -2.0157,-0.4559 -4.0821,-0.7861 -6.1705,-0.9849 -2.0884,-0.1988 -4.1988,-0.2653 -6.3019,-0.199 -2.1031,0.0663 -4.1988,0.2662 -6.258,0.5949 -2.0593,0.3288 -4.0819,0.7871 -6.0403,1.3652 -1.9584,0.5781 -3.8522,1.2766 -5.6563,2.081 -1.8041,0.8043 -3.5179,1.7152 -5.1194,2.7137 -1.6016,0.9984 -3.0902,2.0851 -4.4481,3.2375 -1.3579,1.1524 -2.5842,2.371 -3.665597,3.6307 -1.0814,1.2597 -2.017,2.5607 -2.7988,3.8761 -0.7817,1.3155 -1.4085,2.6454 -1.8775,3.9621 -0.4691,1.3168 -0.7794,2.6202 -0.9335,3.8827 -0.1541,1.2626 -0.151,2.4841 0.0014,3.6381 0.1524,1.1541 0.455,2.2402 0.8951,3.2343 0.4401,0.9941 1.0184,1.8956 1.7178,2.6833 0.6993,0.7876 1.5204,1.4608 2.442,2.0022 0.9216,0.5414 1.944397,0.9502 3.044097,1.2135 1.0997,0.2633 2.2767,0.3803 3.5048,0.343 1.228,-0.0373 2.5072,-0.2298 3.8101,-0.5801 1.3029,-0.3503 2.6294,-0.8594 3.9519,-1.5245 1.3224,-0.6651 2.6406,-1.4871 3.9275,-2.458 1.2869,-0.9709 2.5422,-2.0916 3.7408,-3.3489 1.1985,-1.2572 2.3398,-2.6519 3.4013,-4.1662 1.0614,-1.5144 2.0425,-3.1491 2.9241,-4.8823 0.8816,-1.7332 1.6631,-3.5656 2.3295,-5.472 0.6664,-1.9064 1.217,-3.8873 1.6415,-5.9152 0.4246,-2.0279 0.7224,-4.103 0.8882,-6.1964 0.1659,-2.0935 0.199,-4.2053 0.0996,-6.3061 -0.0995,-2.1008 -0.3324,-4.1905 -0.6932,-6.2402 -0.3608,-2.0497 -0.8504,-4.0592 -1.4582,-6.0011 -0.6078,-1.942 -1.3346,-3.816 -2.1652,-5.5973 -0.8306,-1.7812 -1.7655,-3.46919 -2.7856,-5.04239 -1.0201,-1.5732 -2.1257,-3.0309 -3.2942,-4.3558 -1.1685,-1.3249 -2.4002,-2.5162 -3.6698,-3.5612 -1.2695,-1.045 -2.5771,-1.9429 -3.8957,-2.686 -1.3187,-0.7431 -2.6483,-1.3306 -3.9613,-1.7601 -1.313,-0.4296 -2.6092,-0.7004 -3.8611,-0.8155 -1.252,-0.1151 -2.4594,-0.0736 -3.5962,0.116 -1.1367,0.1895 -2.2024,0.5281 -3.173097,1.0024 -0.9707,0.4742 -1.8459,1.0849 -2.6048,1.8142 -0.759,0.7293 -1.4009,1.578 -1.9091,2.5244 -0.5082,0.9464 -0.8818,1.9912 -1.1086,3.1097 -0.2267,1.1186 -0.3058,2.3114 -0.2298,3.5517 0.076,1.2404 0.3078,2.5286 0.6976,3.83699 0.3898,1.3083 0.9384,2.6369 1.6425,3.9578 0.704,1.321 1.5643,2.6342 2.5723,3.9129 1.008,1.2787 2.164497,2.5225 3.455697,3.7065 1.2912,1.1839 2.7179,2.3076 4.2618,3.3488 1.544,1.0412 3.2059,1.9993 4.9634,2.8558 1.7575,0.8565 3.6112,1.6106 5.5358,2.248 1.9245,0.6374 3.9202,1.1574 5.9594,1.5504 2.0392,0.3929 4.1221,0.6581 6.2197,0.7909 2.0976,0.1328 4.2098,0.1326 6.3074,0 2.0976,-0.1326 4.1804,-0.3982 6.2197,-0.7909 2.0393,-0.3927 4.0348,-0.9132 5.9594,-1.5504 1.9247,-0.6372 3.7781,-1.3918 5.5358,-2.248 1.7577,-0.8563 3.4192,-1.8148 4.9634,-2.8558 1.5441,-1.041 2.9704,-2.165 4.2618,-3.3488 1.2915,-1.1839 2.4474,-2.4279 3.4557,-3.7065 1.0083,-1.2786 1.868,-2.5919 2.5723,-3.9129 0.7044,-1.3209 1.2524,-2.6495 1.6425,-3.9578 0.3901,-1.30839 0.6213,-2.59649 0.6976,-3.83699 0.0763,-1.2404 -0.003,-2.433 -0.2298,-3.5517 -0.2265,-1.1187 -0.6007,-2.1631 -1.1086,-3.1097 -0.5079,-0.9466 -1.1504,-1.7948 -1.9091,-2.5244 -0.7587,-0.7296 -1.6343,-1.3397 -2.6048,-1.8142 -0.9705,-0.4745 -2.0365,-0.8126 -3.1731,-1.0024 -1.1367,-0.1899 -2.3443,-0.2308 -3.5962,-0.116 -1.2518,0.1148 -2.5481,0.3862 -3.8611,0.8155 -1.313,0.4292 -2.6426,1.0173 -3.9613,1.7601 -1.3186,0.7428 -2.6261,1.6412 -3.8957,2.686 -1.2697,1.0447 -2.5012,2.2365 -3.6698,3.5612 -1.1686,1.3247 -2.274,2.7829 -3.2942,4.3558 -1.0203,1.573 -1.9548,3.26129 -2.7856,5.04239 -0.8308,1.7811 -1.5571,3.6554 -2.1652,5.5973 -0.6081,1.9418 -1.0971,3.9515 -1.4582,6.0011 -0.3611,2.0497 -0.5934,4.1394 -0.6932,6.2402 -0.0997,2.1008 -0.066,4.2126 0.0996,6.3061 0.1656,2.0934 0.4638,4.1684 0.8882,6.1964 0.4243,2.028 0.9754,4.0086 1.6415,5.9152 0.6662,1.9066 1.4481,3.7386 2.3295,5.472 0.8814,1.7334 1.8628,3.3677 2.9241,4.8823 1.0613,1.5145 2.2029,2.9087 3.4013,4.1662 1.1985,1.2576 2.454,2.3777 3.7408,3.3489 1.2869,0.9712 2.6051,1.7926 3.9275,2.458 1.3224,0.6654 2.649,1.1739 3.9519,1.5245 1.3029,0.3506 2.582,0.5425 3.8101,0.5801 1.2282,0.0376 2.405,-0.08 3.5048,-0.343 1.0999,-0.263 2.1223,-0.6723 3.0441,-1.2135 0.9218,-0.5411 1.7424,-1.2148 2.442,-2.0022 0.6996,-0.7875 1.2775,-1.6894 1.7178,-2.6833 0.4404,-0.9939 0.7424,-2.0804 0.8951,-3.2343 0.1527,-1.1539 0.1552,-2.3755 0.001,-3.6381 -0.1538,-1.2625 -0.4648,-2.566 -0.9335,-3.8827 -0.4687,-1.3167 -1.0962,-2.6466 -1.8775,-3.9621 -0.7814,-1.3155 -1.7177,-2.6163 -2.7988,-3.8761 -1.0812,-1.2598 -2.308,-2.4782 -3.6656,-3.6307 -1.3576,-1.1526 -2.8467,-2.2389 -4.4481,-3.2375 -1.6013,-0.9987 -3.3155,-1.9091 -5.1194,-2.7137 -1.8039,-0.8046 -3.698,-1.5027 -5.6563,-2.081 -1.9583,-0.5783 -3.9811,-1.0362 -6.0403,-1.3652 -2.0592,-0.329 -4.1549,-0.5283 -6.258,-0.5949 -2.103,-0.0665 -4.2134,5e-4 -6.3019,0.199 -2.0884,0.1985 -4.1547,0.5292 -6.1705,0.9849 -2.0158,0.4557 -3.9808,1.037 -5.8684,1.7317 -1.8877,0.6947 -3.6975,1.5035 -5.4059,2.4095 -1.7085,0.9059 -3.3149,1.9097 -4.7992,2.9906 -1.4844,1.081 -2.846,2.2394 -4.0691,3.4517 -1.223197,1.2122 -2.307097,2.4785 -3.240897,3.7727 -0.9339,1.2943 -1.7167,2.6166 -2.3431,3.9396 -0.6263,1.323 -1.0951,2.6466 -1.4063,3.9432 -0.3112,1.2966 -0.4638,2.5659 -0.4629,3.7808 9e-4,1.215 0.156,2.3753 0.4553,3.4555 0.2992,1.0802 0.7432,2.0799 1.3171,2.9762 0.5738,0.8963 1.2782,1.6887 2.0938,2.3577 0.8156,0.6691 1.743,1.2141 2.759597,1.6198 1.0166,0.4058 2.1227,0.6715 3.2931,0.7867 1.1704,0.1152 2.4053,0.079 3.6776,-0.1139 1.2723,-0.1929 2.5821,-0.5435 3.9017,-1.0516 1.3196,-0.5082 2.6489,-1.1748 3.9604,-1.9946 1.3114,-0.8198 2.6048,-1.7936 3.8539,-2.9108 1.2491,-1.1171 2.4536,-2.3785 3.5894,-3.7685 1.1357,-1.3901 2.2023,-2.9096 3.1788,-4.5386 0.9764,-1.6291 1.8621,-3.3684 2.64,-5.1943 0.7779,-1.826 1.4473,-3.7391 1.9955,-5.713 0.5482,-1.974 0.9745,-4.009 1.2712,-6.0768 0.2967,-2.0679 0.463,-4.1687 0.4964,-6.2731 0.0333,-2.1045 -0.067,-4.2126 -0.2983,-6.2951 -0.2313,-2.0825 -0.5943,-4.1392 -1.0811,-6.1419 -0.4867,-2.0027 -1.098,-3.9511 -1.8208,-5.8191 -0.7228,-1.8679 -1.5579,-3.6548 -2.4879,-5.33759 -0.93,-1.6827 -1.9554,-3.2606 -3.0553,-4.7142 -1.0999,-1.4535 -2.2745,-2.782 -3.4998,-3.9704 -1.2252,-1.1883 -2.5014,-2.2356 -3.8022,-3.1318 -1.3008,-0.8962 -2.6263,-1.6403 -3.9491,-2.2274 -1.3227,-0.5872 -2.6426,-1.0164 -3.932,-1.2882 -1.2894,-0.2718 -2.548,-0.3852 -3.7489,-0.3461 -1.201,0.0392 -2.3439,0.2317 -3.4038,0.5668 -1.059797,0.335 -2.035997,0.8133 -2.906097,1.4194 -0.8702,0.606 -1.6336,1.3404 -2.2716,2.1835 -0.6379,0.8431 -1.1495,1.7955 -1.5203,2.834 -0.3708,1.0385 -0.5997,2.1636 -0.6772,3.3496 -0.0774,1.186 -0.0024,2.4333 0.2297,3.7145 0.2322,1.2812 0.6224,2.59659 1.1699,3.91819 0.5475,1.3216 1.2533,2.6494 2.1113,3.956 0.8579,1.3065 1.869,2.5917 3.021797,3.8293 1.1528,1.2377 2.4482,2.4275 3.8702,3.5457 1.4219,1.1182 2.9711,2.1644 4.6273,3.118 1.6561,0.9537 3.4198,1.8141 5.267,2.5648 1.8473,0.7507 3.7786,1.391 5.7673,1.9088 1.9887,0.5177 4.0351,0.9123 6.1107,1.1765 2.0756,0.2642 4.1805,0.3973 6.2854,0.3974"
       title="sin(2*x)"
       id="path5-0-9" />
  </g>
</svg>
