<?xml version="1.0" encoding="UTF-8" standalone="no"?>
<svg
   id="visual"
   viewBox="0 0 1800 600"
   preserveAspectRatio="none"
   width="100%"
   height="100%"
   version="1.1"
   sodipodi:docname="layered-waves-haikei (4).svg"
   inkscape:export-filename="../Desktop/max-site/max-react/src/img/svg/Header/Cloud/cloud2.svg"
   inkscape:export-xdpi="96"
   inkscape:export-ydpi="96"
   xmlns:inkscape="http://www.inkscape.org/namespaces/inkscape"
   xmlns:sodipodi="http://sodipodi.sourceforge.net/DTD/sodipodi-0.dtd"
   xmlns="http://www.w3.org/2000/svg"
   xmlns:svg="http://www.w3.org/2000/svg">
  <defs
     id="defs4" />
  <sodipodi:namedview
     id="namedview4"
     pagecolor="#ffffff"
     bordercolor="#000000"
     borderopacity="0.25"
     inkscape:showpageshadow="2"
     inkscape:pageopacity="0.0"
     inkscape:pagecheckerboard="0"
     inkscape:deskcolor="#d1d1d1" />
  <path
     d="m 0,141 27.3,-4.3 c 27.4,-4.4 82,-13 136.5,-17.4 54.5,-4.3 108.9,-4.3 163.4,-4 54.5,0.4 109.1,1 163.8,3.4 54.7,2.3 109.3,6.3 163.8,9 54.5,2.6 108.9,4 163.4,4 54.5,0 109.1,-1.4 163.6,0.1 54.5,1.5 108.9,5.9 163.4,8 54.5,2.2 109.1,2.2 163.8,-1 54.7,-3.1 109.3,-9.5 163.8,-9.8 54.5,-0.3 108.9,5.3 163.4,5.2 54.5,-0.2 109.1,-6.2 136.5,-9.2 l 27.3,-3 V 0 h -27.3 c -27.4,0 -82,0 -136.5,0 -54.5,0 -108.9,0 -163.4,0 C 1418.3,0 1363.7,0 1309,0 1254.3,0 1199.7,0 1145.2,0 1090.7,0 1036.3,0 981.8,0 927.3,0 872.7,0 818.2,0 763.7,0 709.3,0 654.8,0 600.3,0 545.7,0 491,0 436.3,0 381.7,0 327.2,0 272.7,0 218.3,0 163.8,0 109.3,0 54.7,0 27.3,0 H 0 Z"
     fill="#727272"
     id="path3"
     style="fill:#878787;fill-opacity:0.1" />
  <path
     d="m 0,62 27.3,0.2 c 27.4,0.1 82,0.5 136.5,1.8 54.5,1.3 108.9,3.7 163.4,4.5 54.5,0.8 109.1,0.2 163.8,1.7 54.7,1.5 109.3,5.1 163.8,5.1 54.5,0 108.9,-3.6 163.4,-5.8 54.5,-2.2 109.1,-2.8 163.6,-3.3 54.5,-0.5 108.9,-0.9 163.4,1 54.5,1.8 109.1,5.8 163.8,4.8 54.7,-1 109.3,-7 163.8,-9 54.5,-2 108.9,0 163.4,4 54.5,4 109.1,10 136.5,13 l 27.3,3 V 0 h -27.3 c -27.4,0 -82,0 -136.5,0 -54.5,0 -108.9,0 -163.4,0 C 1418.3,0 1363.7,0 1309,0 1254.3,0 1199.7,0 1145.2,0 1090.7,0 1036.3,0 981.8,0 927.3,0 872.7,0 818.2,0 763.7,0 709.3,0 654.8,0 600.3,0 545.7,0 491,0 436.3,0 381.7,0 327.2,0 272.7,0 218.3,0 163.8,0 109.3,0 54.7,0 27.3,0 H 0 Z"
     fill="#656565"
     id="path4"
     style="fill:#878787;fill-opacity:0.1" />
</svg>
