<?xml version="1.0" encoding="UTF-8" standalone="no"?>
<svg
   id="visual"
   viewBox="0 0 1800 600"
   preserveAspectRatio="none"
   width="100%"
   height="100%"
   version="1.1"
   sodipodi:docname="layered-waves-haikei (4).svg"
   inkscape:export-filename="../Desktop/max-site/max-react/src/img/svg/Header/Cloud/cloud1.svg"
   inkscape:export-xdpi="96"
   inkscape:export-ydpi="96"
   xmlns:inkscape="http://www.inkscape.org/namespaces/inkscape"
   xmlns:sodipodi="http://sodipodi.sourceforge.net/DTD/sodipodi-0.dtd"
   xmlns="http://www.w3.org/2000/svg"
   xmlns:svg="http://www.w3.org/2000/svg">
  <defs
     id="defs4" />
  <sodipodi:namedview
     id="namedview4"
     pagecolor="#ffffff"
     bordercolor="#000000"
     borderopacity="0.25"
     inkscape:showpageshadow="2"
     inkscape:pageopacity="0.0"
     inkscape:pagecheckerboard="0"
     inkscape:deskcolor="#d1d1d1" />
  <path
     d="m 0,266 27.3,-3.3 c 27.4,-3.4 82,-10 136.5,-17.4 54.5,-7.3 108.9,-15.3 163.4,-13.3 54.5,2 109.1,14 163.8,21.3 54.7,7.4 109.3,10 163.8,8.2 54.5,-1.8 108.9,-8.2 163.4,-13 54.5,-4.8 109.1,-8.2 163.6,-9.2 54.5,-1 108.9,0.4 163.4,0.4 54.5,0 109.1,-1.4 163.8,1.6 54.7,3 109.3,10.4 163.8,11.2 54.5,0.8 108.9,-4.8 163.4,-9.5 54.5,-4.7 109.1,-8.3 136.5,-10.2 L 1800,231 V 0 h -27.3 c -27.4,0 -82,0 -136.5,0 -54.5,0 -108.9,0 -163.4,0 C 1418.3,0 1363.7,0 1309,0 1254.3,0 1199.7,0 1145.2,0 1090.7,0 1036.3,0 981.8,0 927.3,0 872.7,0 818.2,0 763.7,0 709.3,0 654.8,0 600.3,0 545.7,0 491,0 436.3,0 381.7,0 327.2,0 272.7,0 218.3,0 163.8,0 109.3,0 54.7,0 27.3,0 H 0 Z"
     fill="#8e8e8e"
     id="path1"
     style="fill:#191B29;fill-opacity:1.0" />
  <path
     d="m 0,180 27.3,-0.2 c 27.4,-0.1 82,-0.5 136.5,0.4 54.5,0.8 108.9,2.8 163.4,1 54.5,-1.9 109.1,-7.5 163.8,-5.9 54.7,1.7 109.3,10.7 163.8,12.4 54.5,1.6 108.9,-4 163.4,-4.5 54.5,-0.5 109.1,4.1 163.6,5.5 54.5,1.3 108.9,-0.7 163.4,-5 54.5,-4.4 109.1,-11 163.8,-8 54.7,3 109.3,15.6 163.8,22.3 54.5,6.7 108.9,7.3 163.4,2.2 54.5,-5.2 109.1,-16.2 136.5,-21.7 L 1800,173 V 0 h -27.3 c -27.4,0 -82,0 -136.5,0 -54.5,0 -108.9,0 -163.4,0 C 1418.3,0 1363.7,0 1309,0 1254.3,0 1199.7,0 1145.2,0 1090.7,0 1036.3,0 981.8,0 927.3,0 872.7,0 818.2,0 763.7,0 709.3,0 654.8,0 600.3,0 545.7,0 491,0 436.3,0 381.7,0 327.2,0 272.7,0 218.3,0 163.8,0 109.3,0 54.7,0 27.3,0 H 0 Z"
     fill="#808080"
     id="path2"
     style="fill:#20202E;fill-opacity:1.0" />
</svg>
