<svg id="visual" viewBox="0 0 1800 600" width="1800" height="600" xmlns="http://www.w3.org/2000/svg" xmlns:xlink="http://www.w3.org/1999/xlink" version="1.1"><rect x="0" y="0" width="1800" height="600" fill="#00122000"></rect><path d="M0 133L42.8 158.2C85.7 183.3 171.3 233.7 257 222.8C342.7 212 428.3 140 514 123.3C599.7 106.7 685.3 145.3 771.2 191.2C857 237 943 290 1028.8 269.5C1114.7 249 1200.3 155 1286 153C1371.7 151 1457.3 241 1543 264.8C1628.7 288.7 1714.3 246.3 1757.2 225.2L1800 204L1800 0L1757.2 0C1714.3 0 1628.7 0 1543 0C1457.3 0 1371.7 0 1286 0C1200.3 0 1114.7 0 1028.8 0C943 0 857 0 771.2 0C685.3 0 599.7 0 514 0C428.3 0 342.7 0 257 0C171.3 0 85.7 0 42.8 0L0 0Z" fill="#00a7dd"></path></svg>