<!-- <?xml version="1.0" encoding="UTF-8" standalone="no"?>
<svg
   id="visual"
   viewBox="0 0 1800 600"
   width="100%"
   height="100%"
   version="1.1"
   sodipodi:docname="dark-ender.svg"
   inkscape:export-filename="dark-ender.png"
   inkscape:export-xdpi="96"
   inkscape:export-ydpi="96"
   xmlns:inkscape="http://www.inkscape.org/namespaces/inkscape"
   xmlns:sodipodi="http://sodipodi.sourceforge.net/DTD/sodipodi-0.dtd"
   xmlns="http://www.w3.org/2000/svg"
   xmlns:svg="http://www.w3.org/2000/svg">
  <defs
     id="defs1" />
  <sodipodi:namedview
     id="namedview1"
     pagecolor="#ffffff"
     bordercolor="#000000"
     borderopacity="0.25"
     inkscape:showpageshadow="2"
     inkscape:pageopacity="0.0"
     inkscape:pagecheckerboard="0"
     inkscape:deskcolor="#d1d1d1" />
  <path
     d="m 0,324.59357 75,21.38415 c 75,21.43084 225,64.19913 375,102.7186 150,38.51948 300,72.79014 450,93.10041 150,20.31027 300,26.66015 450,15.40779 150,-11.29904 300,-40.24701 375,-54.721 l 75,-14.47398 V 601 h -75 c -75,0 -225,0 -375,0 -150,0 -300,0 -450,0 -150,0 -300,0 -450,0 -150,0 -300,0 -375,0 H 0 Z"
     fill="#0f1121"
     stroke-linecap="round"
     stroke-linejoin="miter"
     id="path1"
     style="stroke-width:0.683303" />
</svg> -->
<svg id="visual" viewBox="0 0 1800 600" preserveAspectRatio="none" width="100%" height="100%"  xmlns="http://www.w3.org/2000/svg" xmlns:xlink="http://www.w3.org/1999/xlink" version="1.1"><path d="m 0,324.59357 75,21.38415 c 75,21.43084 225,64.19913 375,102.7186 150,38.51948 300,72.79014 450,93.10041 150,20.31027 300,26.66015 450,15.40779 150,-11.29904 300,-40.24701 375,-54.721 l 75,-14.47398 V 601 h -75 c -75,0 -225,0 -375,0 -150,0 -300,0 -450,0 -150,0 -300,0 -450,0 -150,0 -300,0 -375,0 H 0 Z" fill="#121424" stroke-linecap="round" stroke-linejoin="miter"></path></svg>