<svg id="visual" viewBox="0 0 900 600" width="100%" height="100%" xmlns="http://www.w3.org/2000/svg" xmlns:xlink="http://www.w3.org/1999/xlink" version="1.1"><g transform="translate(480.90021825967375 322.0104710746516)"><path d="M143.9 -277.5C169.4 -234.5 161.4 -161.5 173.3 -110.2C185.2 -59 217.1 -29.5 242.5 14.7C267.9 58.8 286.8 117.7 270.8 161.8C254.8 206 203.9 235.5 153 255.1C102 274.7 51 284.3 10.5 266.1C-30 248 -60 201.9 -104.5 178.6C-148.9 155.3 -207.8 154.6 -255.3 128.6C-302.8 102.7 -338.9 51.3 -338.5 0.3C-338 -50.8 -301.1 -101.7 -250.3 -122C-199.5 -142.3 -134.9 -132 -90.9 -164.4C-46.9 -196.9 -23.4 -271.9 17.9 -302.9C59.2 -333.8 118.3 -320.6 143.9 -277.5" fill="#424456"></path></g></svg>