<svg id="visual" viewBox="0 0 1800 600" preserveAspectRatio="none" width="100%" height="100%"  xmlns="http://www.w3.org/2000/svg" xmlns:xlink="http://www.w3.org/1999/xlink" version="1.1"><path d="M0 9L75 54.8C150 100.7 300 192.3 450 274.8C600 357.3 750 430.7 900 474.2C1050 517.7 1200 531.3 1350 507.2C1500 483 1650 421 1725 390L1800 359L1800 601L1725 601C1650 601 1500 601 1350 601C1200 601 1050 601 900 601C750 601 600 601 450 601C300 601 150 601 75 601L0 601Z" fill="#A978F2" stroke-linecap="round" stroke-linejoin="miter"></path></svg>