<svg id="visual" viewBox="0 0 1800 600" width="1800" height="600" xmlns="http://www.w3.org/2000/svg" xmlns:xlink="http://www.w3.org/1999/xlink" version="1.1"><rect x="0" y="0" width="1800" height="600" fill="#00122000"></rect><path d="M0 160L42.8 174.5C85.7 189 171.3 218 257 244.8C342.7 271.7 428.3 296.3 514 287.7C599.7 279 685.3 237 771.2 224.8C857 212.7 943 230.3 1028.8 214.7C1114.7 199 1200.3 150 1286 147.3C1371.7 144.7 1457.3 188.3 1543 193C1628.7 197.7 1714.3 163.3 1757.2 146.2L1800 129L1800 0L1757.2 0C1714.3 0 1628.7 0 1543 0C1457.3 0 1371.7 0 1286 0C1200.3 0 1114.7 0 1028.8 0C943 0 857 0 771.2 0C685.3 0 599.7 0 514 0C428.3 0 342.7 0 257 0C171.3 0 85.7 0 42.8 0L0 0Z" fill="#A978F2"></path></svg>