<svg id="visual" viewBox="0 0 1800 600" width="1800" height="600" xmlns="http://www.w3.org/2000/svg" xmlns:xlink="http://www.w3.org/1999/xlink" version="1.1"><path d="M0 437L60 438.3C120 439.7 240 442.3 360 428.3C480 414.3 600 383.7 720 369.5C840 355.3 960 357.7 1080 364.8C1200 372 1320 384 1440 415.7C1560 447.3 1680 498.7 1740 524.3L1800 550L1800 601L1740 601C1680 601 1560 601 1440 601C1320 601 1200 601 1080 601C960 601 840 601 720 601C600 601 480 601 360 601C240 601 120 601 60 601L0 601Z" fill="#A978F2" stroke-linecap="round" stroke-linejoin="miter"></path></svg>