<svg id="visual" viewBox="0 0 1800 600" width="1800" height="600" xmlns="http://www.w3.org/2000/svg" xmlns:xlink="http://www.w3.org/1999/xlink" version="1.1"><rect x="0" y="0" width="1800" height="600" fill="#00122000"></rect><path d="M0 233L33.3 228.7C66.7 224.3 133.3 215.7 200 197.5C266.7 179.3 333.3 151.7 400 141.8C466.7 132 533.3 140 600 135.8C666.7 131.7 733.3 115.3 800 132C866.7 148.7 933.3 198.3 1000 223.8C1066.7 249.3 1133.3 250.7 1200 249.3C1266.7 248 1333.3 244 1400 220.5C1466.7 197 1533.3 154 1600 147.2C1666.7 140.3 1733.3 169.7 1766.7 184.3L1800 199L1800 0L1766.7 0C1733.3 0 1666.7 0 1600 0C1533.3 0 1466.7 0 1400 0C1333.3 0 1266.7 0 1200 0C1133.3 0 1066.7 0 1000 0C933.3 0 866.7 0 800 0C733.3 0 666.7 0 600 0C533.3 0 466.7 0 400 0C333.3 0 266.7 0 200 0C133.3 0 66.7 0 33.3 0L0 0Z" fill="#b3995e"></path></svg>