<?xml version="1.0" encoding="UTF-8" standalone="no"?>
<svg
   id="visual"
   viewBox="0 0 7200 540"
   preserveAspectRatio="none"
   width="100%"
   height="100%"
   version="1.1"
   sodipodi:docname="layered-waves-haikei (3).svg"
   inkscape:version="1.3 (0e150ed, 2023-07-21)"
   inkscape:export-filename="../Desktop/max-site/max-react/src/img/svg/Header/Wave/r1.svg"
   inkscape:export-xdpi="96"
   inkscape:export-ydpi="96"
   xmlns:inkscape="http://www.inkscape.org/namespaces/inkscape"
   xmlns:sodipodi="http://sodipodi.sourceforge.net/DTD/sodipodi-0.dtd"
   xmlns="http://www.w3.org/2000/svg"
   xmlns:svg="http://www.w3.org/2000/svg">
  <defs
     id="defs6" />
  <sodipodi:namedview
     id="namedview6"
     pagecolor="#ffffff"
     bordercolor="#000000"
     borderopacity="0.25"
     inkscape:showpageshadow="2"
     inkscape:pageopacity="0.0"
     inkscape:pagecheckerboard="0"
     inkscape:deskcolor="#d1d1d1"
     inkscape:zoom="0.079676592"
     inkscape:cx="1920.2629"
     inkscape:cy="2598.0027"
     inkscape:window-width="1512"
     inkscape:window-height="849"
     inkscape:window-x="0"
     inkscape:window-y="38"
     inkscape:window-maximized="1"
     inkscape:current-layer="visual" />
  <path
     d="m 0,467 52.2,-10.2 c 52.1,-10.1 156.5,-30.5 260.8,-39.1 104.3,-8.7 208.7,-5.7 313,-14 104.3,-8.4 208.7,-28 313,-35.7 104.3,-7.7 208.7,-3.3 313,12.5 104.3,15.8 208.7,43.2 313,57.5 104.3,14.3 208.7,15.7 313,0.3 104.3,-15.3 208.7,-47.3 313,-45.6 104.3,1.6 208.7,37 313,52.1 104.3,15.2 208.7,10.2 313,6.5 104.3,-3.6 208.7,-6 313,-16.8 104.3,-10.8 208.7,-30.2 313.2,-41.5 104.5,-11.3 209.1,-14.7 313.6,-3.2 104.5,11.5 208.9,37.9 313.2,34.9 104.3,-3 208.7,-35.4 313,-33.5 104.3,1.8 208.7,37.8 313,52.8 104.3,15 208.7,9 313,-0.3 104.3,-9.4 208.7,-22 313,-24.7 104.3,-2.7 208.7,4.7 313,15.8 104.3,11.2 208.7,26.2 313,27.7 104.3,1.5 208.7,-10.5 313,-20.5 104.3,-10 208.7,-18 313,-28 104.3,-10 208.7,-22 313,-15.3 104.3,6.6 208.7,32 260.8,44.6 L 7200,456 v 85 h -52.2 c -52.1,0 -156.5,0 -260.8,0 -104.3,0 -208.7,0 -313,0 -104.3,0 -208.7,0 -313,0 -104.3,0 -208.7,0 -313,0 -104.3,0 -208.7,0 -313,0 -104.3,0 -208.7,0 -313,0 -104.3,0 -208.7,0 -313,0 -104.3,0 -208.7,0 -313,0 -104.3,0 -208.7,0 -313,0 -104.3,0 -208.7,0 -313,0 -104.3,0 -208.7,0 -313.2,0 -104.5,0 -209.1,0 -313.6,0 -104.5,0 -208.9,0 -313.2,0 -104.3,0 -208.7,0 -313,0 -104.3,0 -208.7,0 -313,0 -104.3,0 -208.7,0 -313,0 -104.3,0 -208.7,0 -313,0 -104.3,0 -208.7,0 -313,0 -104.3,0 -208.7,0 -313,0 -104.3,0 -208.7,0 -313,0 -104.3,0 -208.7,0 -313,0 -104.3,0 -208.7,0 -313,0 -104.3,0 -208.7,0 -260.8,0 H 0 Z"
     fill="#02247b"
     id="path5-1"
     style="display:inline"
     inkscape:label="ll1" />
</svg>
