<?xml version="1.0" encoding="UTF-8" standalone="no"?>
<svg
   preserveAspectRatio="none"
   id="visual"
   viewBox="0 0 7200 540"
   width="100%"
   height="100%"
   version="1.1"
   sodipodi:docname="layered-waves-haikei (3).svg"
   inkscape:version="1.3 (0e150ed, 2023-07-21)"
   inkscape:export-filename="../Desktop/max-site/max-react/src/img/svg/Header/Wave/r2.svg"
   inkscape:export-xdpi="96"
   inkscape:export-ydpi="96"
   xmlns:inkscape="http://www.inkscape.org/namespaces/inkscape"
   xmlns:sodipodi="http://sodipodi.sourceforge.net/DTD/sodipodi-0.dtd"
   xmlns="http://www.w3.org/2000/svg"
   xmlns:svg="http://www.w3.org/2000/svg">
  <defs
     id="defs6" />
  <sodipodi:namedview
     id="namedview6"
     pagecolor="#ffffff"
     bordercolor="#000000"
     borderopacity="0.25"
     inkscape:showpageshadow="2"
     inkscape:pageopacity="0.0"
     inkscape:pagecheckerboard="0"
     inkscape:deskcolor="#d1d1d1"
     inkscape:zoom="0.079676592"
     inkscape:cx="1920.2629"
     inkscape:cy="2598.0027"
     inkscape:window-width="1512"
     inkscape:window-height="849"
     inkscape:window-x="0"
     inkscape:window-y="38"
     inkscape:window-maximized="1"
     inkscape:current-layer="visual" />
  <path
     d="m 0,265 52.2,6.5 c 52.1,6.5 156.5,19.5 260.8,26.2 104.3,6.6 208.7,7 313,6.8 104.3,-0.2 208.7,-0.8 313,-3.3 104.3,-2.5 208.7,-6.9 313,-0.4 104.3,6.5 208.7,23.9 313,15 104.3,-8.8 208.7,-43.8 313,-46 104.3,-2.1 208.7,28.5 313,35.5 104.3,7 208.7,-9.6 313,-19.8 104.3,-10.2 208.7,-13.8 313,-3.2 104.3,10.7 208.7,35.7 313,46.5 104.3,10.9 208.7,7.5 313.2,4.7 104.5,-2.8 209.1,-5.2 313.6,-4.5 104.5,0.7 208.9,4.3 313.2,8.7 104.3,4.3 208.7,9.3 313,4.3 104.3,-5 208.7,-20 313,-30.7 104.3,-10.6 208.7,-17 313,-18 104.3,-1 208.7,3.4 313,-5.6 104.3,-9 208.7,-31.4 313,-26 104.3,5.3 208.7,38.3 313,44.3 104.3,6 208.7,-15 313,-25.7 104.3,-10.6 208.7,-11 313,1.9 104.3,12.8 208.7,38.8 313,35.3 104.3,-3.5 208.7,-36.5 260.8,-53 L 7200,248 v 293 h -52.2 c -52.1,0 -156.5,0 -260.8,0 -104.3,0 -208.7,0 -313,0 -104.3,0 -208.7,0 -313,0 -104.3,0 -208.7,0 -313,0 -104.3,0 -208.7,0 -313,0 -104.3,0 -208.7,0 -313,0 -104.3,0 -208.7,0 -313,0 -104.3,0 -208.7,0 -313,0 -104.3,0 -208.7,0 -313,0 -104.3,0 -208.7,0 -313,0 -104.3,0 -208.7,0 -313.2,0 -104.5,0 -209.1,0 -313.6,0 -104.5,0 -208.9,0 -313.2,0 -104.3,0 -208.7,0 -313,0 -104.3,0 -208.7,0 -313,0 -104.3,0 -208.7,0 -313,0 -104.3,0 -208.7,0 -313,0 -104.3,0 -208.7,0 -313,0 -104.3,0 -208.7,0 -313,0 -104.3,0 -208.7,0 -313,0 -104.3,0 -208.7,0 -313,0 -104.3,0 -208.7,0 -313,0 -104.3,0 -208.7,0 -260.8,0 H 0 Z"
     fill="#04439c"
     id="path3-4"
     style="display:inline"
     inkscape:label="ll2" />
</svg>
