<?xml version="1.0" encoding="UTF-8" standalone="no"?>
<svg
   preserveAspectRatio="none"
   id="visual"
   viewBox="0 0 7200 540"
   width="100%"
   height="100%"
   version="1.1"
   sodipodi:docname="layered-waves-haikei (3).svg"
   inkscape:version="1.3 (0e150ed, 2023-07-21)"
   inkscape:export-filename="../Desktop/max-site/max-react/src/img/svg/Header/Wave/r1.svg"
   inkscape:export-xdpi="96"
   inkscape:export-ydpi="96"
   xmlns:inkscape="http://www.inkscape.org/namespaces/inkscape"
   xmlns:sodipodi="http://sodipodi.sourceforge.net/DTD/sodipodi-0.dtd"
   xmlns="http://www.w3.org/2000/svg"
   xmlns:svg="http://www.w3.org/2000/svg">
  <defs
     id="defs6" />
  <sodipodi:namedview
     id="namedview6"
     pagecolor="#ffffff"
     bordercolor="#000000"
     borderopacity="0.25"
     inkscape:showpageshadow="2"
     inkscape:pageopacity="0.0"
     inkscape:pagecheckerboard="0"
     inkscape:deskcolor="#d1d1d1"
     inkscape:zoom="0.079676592"
     inkscape:cx="1920.2629"
     inkscape:cy="2598.0027"
     inkscape:window-width="1512"
     inkscape:window-height="849"
     inkscape:window-x="0"
     inkscape:window-y="38"
     inkscape:window-maximized="1"
     inkscape:current-layer="visual" />
  <path
     d="m 0,452 52.2,-2.3 c 52.1,-2.4 156.5,-7 260.8,-1.4 104.3,5.7 208.7,21.7 313,33.7 104.3,12 208.7,20 313,22.7 104.3,2.6 208.7,0 313,-8.4 104.3,-8.3 208.7,-22.3 313,-26.6 104.3,-4.4 208.7,1 313,13.1 104.3,12.2 208.7,31.2 313,31.5 104.3,0.4 208.7,-18 313,-33.5 104.3,-15.5 208.7,-28.1 313,-34 104.3,-5.8 208.7,-4.8 313,0.2 104.3,5 208.7,14 313.2,18 104.5,4 209.1,3 313.6,3.3 104.5,0.4 208.9,2 313.2,12.4 104.3,10.3 208.7,29.3 313,29.1 104.3,-0.1 208.7,-19.5 313,-21 104.3,-1.5 208.7,14.9 313,20 104.3,5.2 208.7,-0.8 313,-12 104.3,-11.1 208.7,-27.5 313,-40 104.3,-12.5 208.7,-21.1 313,-22.5 104.3,-1.3 208.7,4.7 313,4.5 104.3,-0.1 208.7,-6.5 313,3.4 104.3,9.8 208.7,35.8 313,48 104.3,12.1 208.7,10.5 260.8,9.6 L 7200,499 v 42 h -52.2 c -52.1,0 -156.5,0 -260.8,0 -104.3,0 -208.7,0 -313,0 -104.3,0 -208.7,0 -313,0 -104.3,0 -208.7,0 -313,0 -104.3,0 -208.7,0 -313,0 -104.3,0 -208.7,0 -313,0 -104.3,0 -208.7,0 -313,0 -104.3,0 -208.7,0 -313,0 -104.3,0 -208.7,0 -313,0 -104.3,0 -208.7,0 -313,0 -104.3,0 -208.7,0 -313.2,0 -104.5,0 -209.1,0 -313.6,0 -104.5,0 -208.9,0 -313.2,0 -104.3,0 -208.7,0 -313,0 -104.3,0 -208.7,0 -313,0 -104.3,0 -208.7,0 -313,0 -104.3,0 -208.7,0 -313,0 -104.3,0 -208.7,0 -313,0 -104.3,0 -208.7,0 -313,0 -104.3,0 -208.7,0 -313,0 -104.3,0 -208.7,0 -313,0 -104.3,0 -208.7,0 -313,0 -104.3,0 -208.7,0 -260.8,0 H 0 Z"
     fill="#01146b"
     id="path6-7"
     style="display:inline"
     inkscape:label="rr1" />
</svg>
