<?xml version="1.0" encoding="UTF-8" standalone="no"?>
<svg
   preserveAspectRatio="none"
   id="visual"
   viewBox="0 0 7200 540"
   width="100%"
   height="100%"
   version="1.1"
   sodipodi:docname="layered-waves-haikei (3).svg"
   inkscape:version="1.3 (0e150ed, 2023-07-21)"
   inkscape:export-filename="../Desktop/max-site/max-react/src/img/svg/Header/Wave/l1.svg"
   inkscape:export-xdpi="96"
   inkscape:export-ydpi="96"
   xmlns:inkscape="http://www.inkscape.org/namespaces/inkscape"
   xmlns:sodipodi="http://sodipodi.sourceforge.net/DTD/sodipodi-0.dtd"
   xmlns="http://www.w3.org/2000/svg"
   xmlns:svg="http://www.w3.org/2000/svg">
  <defs
     id="defs6" />
  <sodipodi:namedview
     id="namedview6"
     pagecolor="#ffffff"
     bordercolor="#000000"
     borderopacity="0.25"
     inkscape:showpageshadow="2"
     inkscape:pageopacity="0.0"
     inkscape:pagecheckerboard="0"
     inkscape:deskcolor="#d1d1d1"
     inkscape:zoom="0.079676592"
     inkscape:cx="1920.2629"
     inkscape:cy="2598.0027"
     inkscape:window-width="1512"
     inkscape:window-height="849"
     inkscape:window-x="0"
     inkscape:window-y="38"
     inkscape:window-maximized="1"
     inkscape:current-layer="visual" />
  <path
     d="m 0,392 52.2,-8.5 C 104.3,375 208.7,358 313,354 c 104.3,-4 208.7,5 313,17 104.3,12 208.7,27 313,18.3 104.3,-8.6 208.7,-41 313,-59.5 104.3,-18.5 208.7,-23.1 313,-25.6 104.3,-2.5 208.7,-2.9 313,14 104.3,16.8 208.7,50.8 313,51.3 104.3,0.5 208.7,-32.5 313,-46.5 104.3,-14 208.7,-9 313,-0.5 104.3,8.5 208.7,20.5 313,18.8 104.3,-1.6 208.7,-17 313.2,-20.1 104.5,-3.2 209.1,5.8 313.6,15.8 104.5,10 208.9,21 313.2,23.8 104.3,2.9 208.7,-2.5 313,2.9 104.3,5.3 208.7,21.3 313,24 104.3,2.6 208.7,-8 313,-21.2 104.3,-13.2 208.7,-28.8 313,-41.7 104.3,-12.8 208.7,-22.8 313,-7.8 104.3,15 208.7,55 313,58.5 104.3,3.5 208.7,-29.5 313,-46.2 104.3,-16.6 208.7,-17 313,-11.5 104.3,5.5 208.7,16.9 313,27.2 104.3,10.3 208.7,19.7 260.8,24.3 l 52.2,4.7 v 167 h -52.2 c -52.1,0 -156.5,0 -260.8,0 -104.3,0 -208.7,0 -313,0 -104.3,0 -208.7,0 -313,0 -104.3,0 -208.7,0 -313,0 -104.3,0 -208.7,0 -313,0 -104.3,0 -208.7,0 -313,0 -104.3,0 -208.7,0 -313,0 -104.3,0 -208.7,0 -313,0 -104.3,0 -208.7,0 -313,0 -104.3,0 -208.7,0 -313,0 -104.3,0 -208.7,0 -313.2,0 -104.5,0 -209.1,0 -313.6,0 -104.5,0 -208.9,0 -313.2,0 -104.3,0 -208.7,0 -313,0 -104.3,0 -208.7,0 -313,0 -104.3,0 -208.7,0 -313,0 -104.3,0 -208.7,0 -313,0 -104.3,0 -208.7,0 -313,0 -104.3,0 -208.7,0 -313,0 -104.3,0 -208.7,0 -313,0 -104.3,0 -208.7,0 -313,0 -104.3,0 -208.7,0 -313,0 -104.3,0 -208.7,0 -260.8,0 H 0 Z"
     fill="#02338c"
     id="path4-9"
     style="display:inline"
     inkscape:label="rr2" />
</svg>
