<?xml version="1.0" encoding="UTF-8" standalone="no"?>
<svg
   preserveAspectRatio="none"
   id="visual"
   viewBox="0 0 7200 540"
   width="100%"
   height="100%"
   version="1.1"
   sodipodi:docname="layered-waves-haikei (3).svg"
   inkscape:version="1.3 (0e150ed, 2023-07-21)"
   inkscape:export-filename="../Desktop/max-site/max-react/src/img/svg/Header/Wave/l2.svg"
   inkscape:export-xdpi="96"
   inkscape:export-ydpi="96"
   xmlns:inkscape="http://www.inkscape.org/namespaces/inkscape"
   xmlns:sodipodi="http://sodipodi.sourceforge.net/DTD/sodipodi-0.dtd"
   xmlns="http://www.w3.org/2000/svg"
   xmlns:svg="http://www.w3.org/2000/svg">
  <defs
     id="defs6" />
  <sodipodi:namedview
     id="namedview6"
     pagecolor="#ffffff"
     bordercolor="#000000"
     borderopacity="0.25"
     inkscape:showpageshadow="2"
     inkscape:pageopacity="0.0"
     inkscape:pagecheckerboard="0"
     inkscape:deskcolor="#d1d1d1"
     inkscape:zoom="0.079676592"
     inkscape:cx="1920.2629"
     inkscape:cy="2598.0027"
     inkscape:window-width="1512"
     inkscape:window-height="849"
     inkscape:window-x="0"
     inkscape:window-y="38"
     inkscape:window-maximized="1"
     inkscape:current-layer="visual" />
  <path
     d="m 0,279 52.2,-18.3 c 52.1,-18.4 156.5,-55 260.8,-55.5 104.3,-0.5 208.7,35.1 313,44 104.3,8.8 208.7,-9.2 313,-13.4 104.3,-4.1 208.7,5.5 313,5.5 104.3,0 208.7,-9.6 313,-13.3 104.3,-3.7 208.7,-1.3 313,-3.2 104.3,-1.8 208.7,-7.8 313,-7.8 104.3,0 208.7,6 313,2.2 104.3,-3.9 208.7,-17.5 313,-23.9 104.3,-6.3 208.7,-5.3 313,2.2 104.3,7.5 208.7,21.5 313.2,37.8 104.5,16.4 209.1,35 313.6,34.7 104.5,-0.3 208.9,-19.7 313.2,-36.2 104.3,-16.5 208.7,-30.1 313,-21.3 104.3,8.8 208.7,40.2 313,49 104.3,8.8 208.7,-4.8 313,-23.2 104.3,-18.3 208.7,-41.3 313,-42.5 104.3,-1.1 208.7,19.5 313,26.7 104.3,7.2 208.7,0.8 313,-5.7 104.3,-6.5 208.7,-13.1 313,-12.6 104.3,0.5 208.7,8.1 313,22 104.3,13.8 208.7,33.8 313,38 104.3,4.1 208.7,-7.5 260.8,-13.4 L 7200,245 v 296 h -52.2 c -52.1,0 -156.5,0 -260.8,0 -104.3,0 -208.7,0 -313,0 -104.3,0 -208.7,0 -313,0 -104.3,0 -208.7,0 -313,0 -104.3,0 -208.7,0 -313,0 -104.3,0 -208.7,0 -313,0 -104.3,0 -208.7,0 -313,0 -104.3,0 -208.7,0 -313,0 -104.3,0 -208.7,0 -313,0 -104.3,0 -208.7,0 -313,0 -104.3,0 -208.7,0 -313.2,0 -104.5,0 -209.1,0 -313.6,0 -104.5,0 -208.9,0 -313.2,0 -104.3,0 -208.7,0 -313,0 -104.3,0 -208.7,0 -313,0 -104.3,0 -208.7,0 -313,0 -104.3,0 -208.7,0 -313,0 -104.3,0 -208.7,0 -313,0 -104.3,0 -208.7,0 -313,0 -104.3,0 -208.7,0 -313,0 -104.3,0 -208.7,0 -313,0 -104.3,0 -208.7,0 -313,0 -104.3,0 -208.7,0 -260.8,0 H 0 Z"
     fill="#0753ac"
     id="path2-5"
     style="display:inline"
     inkscape:label="rr3" />
</svg>
